<svg xmlns="http://www.w3.org/2000/svg" version="1.1" xmlns:xlink="http://www.w3.org/1999/xlink" xmlns:svgjs="http://svgjs.dev/svgjs" width="1920" height="1080" preserveAspectRatio="none" viewBox="0 0 1920 1080"><g mask="url(&quot;#SvgjsMask1917&quot;)" fill="none"><rect width="1920" height="1080" x="0" y="0" fill="url(&quot;#SvgjsLinearGradient1918&quot;)"></rect><path d="M-249.15 105.15 a354.3 354.3 0 1 0 708.6 0 a354.3 354.3 0 1 0 -708.6 0z" fill="rgba(77, 28, 222, 0.33)" class="triangle-float3"></path><path d="M92.069,224.986C137.442,222.216,173.468,191.551,196.573,152.404C220.152,112.453,234.452,63.431,211.064,23.368C187.818,-16.452,138.162,-25.379,92.069,-26.605C42.962,-27.911,-11.12,-24.108,-38.422,16.73C-68.195,61.264,-65.588,121.275,-37.144,166.67C-10.252,209.588,41.516,228.072,92.069,224.986" fill="rgba(77, 28, 222, 0.33)" class="triangle-float2"></path><path d="M272.324,536.413C365.712,534.77,446.431,480.608,496.363,401.673C550.604,315.926,584.452,209.253,535.493,120.384C485.239,29.164,376.444,-7.353,272.324,-4.999C172.612,-2.744,78.647,45.338,28.992,131.836C-20.457,217.977,-16.987,324.686,34.206,409.802C83.866,492.369,175.989,538.107,272.324,536.413" fill="rgba(77, 28, 222, 0.33)" class="triangle-float2"></path><path d="M1583.02 -23.02 a97.96 97.96 0 1 0 195.92 0 a97.96 97.96 0 1 0 -195.92 0z" fill="rgba(77, 28, 222, 0.33)" class="triangle-float2"></path><path d="M1531.42 28.58 a201.16 201.16 0 1 0 402.32 0 a201.16 201.16 0 1 0 -402.32 0z" fill="rgba(77, 28, 222, 0.33)" class="triangle-float2"></path><path d="M1491.21 68.79 a281.58 281.58 0 1 0 563.16 0 a281.58 281.58 0 1 0 -563.16 0z" fill="rgba(77, 28, 222, 0.33)" class="triangle-float1"></path><path d="M110.233,1107.107C165.895,1111.46,229.534,1107.531,259.343,1060.322C290.475,1011.018,271.721,948.327,242.264,898.005C213.178,848.316,167.807,805.176,110.233,805.595C53.219,806.01,6.359,848.596,-18.513,899.901C-40.442,945.135,-29.827,997.082,-3.297,1039.78C21.59,1079.834,63.221,1103.43,110.233,1107.107" fill="rgba(77, 28, 222, 0.33)" class="triangle-float1"></path><path d="M-243.02 963.02 a342.04 342.04 0 1 0 684.08 0 a342.04 342.04 0 1 0 -684.08 0z" fill="rgba(77, 28, 222, 0.33)" class="triangle-float2"></path><path d="M122.363,1167.99C181.955,1166.097,223.152,1113.233,249.299,1059.65C271.951,1013.231,269.867,960.801,245.76,915.121C219.691,865.722,178.193,820.815,122.363,819.118C64.167,817.349,14.044,856.596,-14.749,907.201C-43.203,957.209,-46.126,1017.256,-19.351,1068.182C9.467,1122.994,60.468,1169.956,122.363,1167.99" fill="rgba(77, 28, 222, 0.33)" class="triangle-float2"></path><path d="M1936.575,1355.879C2033.368,1360.901,2128.522,1319.201,2180.68,1237.509C2236.99,1149.314,2255.747,1032.964,2198.791,945.185C2145.253,862.675,2034.536,852.484,1936.575,861.306C1855.268,868.628,1785.949,915.346,1745.121,986.039C1704.281,1056.752,1695.184,1141.751,1732.724,1214.269C1773.491,1293.02,1848.017,1351.285,1936.575,1355.879" fill="rgba(77, 28, 222, 0.33)" class="triangle-float2"></path><path d="M1939.798,1357.393C2030.171,1358.503,2108.21,1301.379,2154.653,1223.845C2202.583,1143.829,2223.838,1043.491,2175.671,963.617C2128.683,885.699,2030.758,869.853,1939.798,867.559C1843.13,865.121,1731.29,867.76,1682.374,951.174C1633.141,1035.129,1681.8,1136.467,1733.896,1218.676C1781.375,1293.598,1851.106,1356.303,1939.798,1357.393" fill="rgba(77, 28, 222, 0.33)" class="triangle-float2"></path><path d="M1748.532,1006.339C1786.022,1007.087,1825.204,996.089,1844.555,963.971C1864.423,930.996,1858.141,889.703,1838.894,856.361C1819.644,823.014,1787.03,798.305,1748.532,797.625C1708.911,796.925,1671.588,818.36,1652.466,853.068C1633.952,886.672,1638.551,927.756,1658.927,960.265C1678.044,990.766,1712.542,1005.621,1748.532,1006.339" fill="rgba(77, 28, 222, 0.33)" class="triangle-float2"></path></g><defs><mask id="SvgjsMask1917"><rect width="1920" height="1080" fill="#ffffff"></rect></mask><linearGradient x1="89.06%" y1="-19.44%" x2="10.94%" y2="119.44%" gradientUnits="userSpaceOnUse" id="SvgjsLinearGradient1918"><stop stop-color="#0e2a47" offset="0"></stop><stop stop-color="rgba(50, 14, 80, 1)" offset="1"></stop></linearGradient><style>
                @keyframes float1 {
                    0%{transform: translate(0, 0)}
                    50%{transform: translate(-13px, 0)}
                    100%{transform: translate(0, 0)}
                }

                .triangle-float1 {
                    animation: float1 3.5s infinite;
                }

                @keyframes float2 {
                    0%{transform: translate(0, 0)}
                    50%{transform: translate(-8px, -8px)}
                    100%{transform: translate(0, 0)}
                }

                .triangle-float2 {
                    animation: float2 2.5s infinite;
                }

                @keyframes float3 {
                    0%{transform: translate(0, 0)}
                    50%{transform: translate(0, -13px)}
                    100%{transform: translate(0, 0)}
                }

                .triangle-float3 {
                    animation: float3 4.5s infinite;
                }
            </style></defs></svg>