<svg xmlns="http://www.w3.org/2000/svg" version="1.1" xmlns:xlink="http://www.w3.org/1999/xlink" xmlns:svgjs="http://svgjs.dev/svgjs" width="1366" height="768" preserveAspectRatio="none" viewBox="0 0 1366 768">
    <g mask="url(&quot;#SvgjsMask4485&quot;)" fill="none">
        <rect width="1366" height="768" x="0" y="0" fill="url(&quot;#SvgjsLinearGradient4486&quot;)"></rect>
        <path d="M141.275,189.764C188.577,192.83,232.065,163.91,255.894,122.934C279.855,81.73,282.214,30.418,257.714,-10.467C233.835,-50.315,187.711,-69.651,141.275,-68.34C97.157,-67.094,55.876,-43.449,35.694,-4.198C16.965,32.227,30.212,73.602,49.794,109.576C70.573,147.749,97.904,186.953,141.275,189.764" fill="rgba(77, 28, 222, 0.33)" class="triangle-float3"></path>
        <path d="M837.68,751.176C877.309,753.735,914.549,729.416,933.223,694.369C950.918,661.159,944.174,621.126,923.846,589.459C905.18,560.382,872.227,544.877,837.68,545.538C804.321,546.176,773.216,563.468,757.044,592.652C741.334,621.002,746.663,654.383,761.358,683.272C777.905,715.802,801.259,748.824,837.68,751.176" fill="rgba(77, 28, 222, 0.33)" class="triangle-float3"></path>
        <path d="M662.952,232.631C715.807,231.929,773.33,225.829,801.69,181.221C831.689,134.035,823.626,72.916,795.052,24.853C767.137,-22.103,717.557,-53.696,662.952,-52.146C610.693,-50.663,570.54,-12.581,543.23,31.999C514.282,79.253,489.286,137.405,517.683,184.992C545.671,231.895,608.338,233.356,662.952,232.631" fill="rgba(77, 28, 222, 0.33)" class="triangle-float2"></path>
        <path d="M334.965,950.688C407.631,951.163,464.625,896.76,501.785,834.312C540.014,770.069,562.833,692.708,527.767,626.685C490.859,557.193,413.52,515.706,334.965,520.222C262.778,524.372,210.584,582.769,177.083,646.846C146.397,705.539,141.341,773.386,171.879,832.156C205.09,896.07,262.939,950.217,334.965,950.688" fill="rgba(77, 28, 222, 0.33)" class="triangle-float3"></path>
        <path d="M138.606,266.138C163.166,265.866,189.647,260.331,201.758,238.962C213.751,217.8,205.227,192.102,192.213,171.552C180.249,152.66,160.964,138.814,138.606,139.24C116.896,139.653,100.241,155.312,88.423,173.528C75.081,194.094,61.307,218.833,72.987,240.387C84.985,262.529,113.424,266.417,138.606,266.138" fill="rgba(77, 28, 222, 0.33)" class="triangle-float3"></path>
        <path d="M453.828,380.695C493.293,378.789,522.86,349.015,542.664,314.825C562.529,280.53,576.549,238.429,555.788,204.668C535.655,171.929,492.249,169.371,453.828,170.36C417.681,171.291,380.966,179.835,360.574,209.695C337.383,243.653,329.087,288.085,348.775,324.187C369.179,361.602,411.261,382.75,453.828,380.695" fill="rgba(77, 28, 222, 0.33)" class="triangle-float3"></path>
        <path d="M1334.639,516.87C1383.481,517.581,1431.635,497.676,1457.046,455.959C1483.447,412.617,1485.372,356.815,1458.264,313.912C1432.694,273.442,1382.473,260.353,1334.639,262.229C1290.432,263.963,1249.827,285.252,1226.74,322.992C1202.547,362.54,1195.71,411.971,1218.255,452.481C1241.363,494.003,1287.125,516.178,1334.639,516.87" fill="rgba(77, 28, 222, 0.33)" class="triangle-float2"></path>
        <path d="M1132.879,421.622C1170.109,419.808,1206.329,406.458,1226.164,374.9C1247.325,341.233,1249.746,299.391,1232.104,263.754C1212.168,223.481,1177.816,186.499,1132.879,186.457C1087.892,186.415,1055.219,224.264,1033.33,263.567C1012.165,301.569,999.217,348.02,1022.399,384.826C1044.57,420.028,1091.326,423.646,1132.879,421.622" fill="rgba(77, 28, 222, 0.33)" class="triangle-float1"></path>
    </g>
    <defs>
        <mask id="SvgjsMask4485">
            <rect width="1366" height="768" fill="#ffffff"></rect>
        </mask>
        <linearGradient x1="10.94%" y1="119.47%" x2="89.06%" y2="-19.47%" gradientUnits="userSpaceOnUse" id="SvgjsLinearGradient4486">
            <stop stop-color="rgba(7, 4, 9, 1)" offset="0"></stop>
            <stop stop-color="rgba(46, 15, 71, 1)" offset="0.53"></stop>
            <stop stop-color="rgba(59, 11, 99, 1)" offset="0.93"></stop>
        </linearGradient>
        <style>
            @keyframes float1 {
                    0%{transform: translate(0, 0)}
                    50%{transform: translate(-10px, 0)}
                    100%{transform: translate(0, 0)}
                }

                .triangle-float1 {
                    animation: float1 5s infinite;
                }

                @keyframes float2 {
                    0%{transform: translate(0, 0)}
                    50%{transform: translate(-5px, -5px)}
                    100%{transform: translate(0, 0)}
                }

                .triangle-float2 {
                    animation: float2 4s infinite;
                }

                @keyframes float3 {
                    0%{transform: translate(0, 0)}
                    50%{transform: translate(0, -10px)}
                    100%{transform: translate(0, 0)}
                }

                .triangle-float3 {
                    animation: float3 6s infinite;
                }
        </style>
    </defs>
</svg>