<svg xmlns="http://www.w3.org/2000/svg" version="1.1" xmlns:xlink="http://www.w3.org/1999/xlink" xmlns:svgjs="http://svgjs.dev/svgjs" width="1366" height="768" preserveAspectRatio="none" viewBox="0 0 1366 768"><g mask="url(&quot;#SvgjsMask4649&quot;)" fill="none"><rect width="1366" height="768" x="0" y="0" fill="url(&quot;#SvgjsLinearGradient4650&quot;)"></rect><path d="M1137.141,904.29C1189.062,904.043,1235.845,873.204,1260.554,827.538C1284.129,783.966,1279.806,731.091,1253.604,689.046C1228.889,649.387,1183.868,628.946,1137.141,629.504C1091.442,630.049,1049.751,653.097,1025.396,691.769C999.191,733.379,988.791,785.199,1011.676,828.723C1036.029,875.038,1084.815,904.539,1137.141,904.29" fill="rgba(77, 28, 222, 0.33)" class="triangle-float1"></path><path d="M1079.651,169.034C1107.349,169.835,1137.464,165.196,1152.261,141.768C1167.852,117.083,1164.302,84.641,1148.428,60.138C1133.817,37.585,1106.497,28.515,1079.651,29.688C1054.945,30.768,1033.395,44.592,1020.552,65.726C1007.13,87.812,1001.136,115.334,1013.97,137.768C1026.875,160.327,1053.673,168.283,1079.651,169.034" fill="rgba(77, 28, 222, 0.33)" class="triangle-float3"></path><path d="M945.303,360.432C979.782,358.64,1001.953,328.162,1019.362,298.346C1036.98,268.172,1052.373,233.958,1037.653,202.269C1020.797,165.982,985.223,136.228,945.303,138.918C908.112,141.424,889.671,180.457,872.256,213.414C856.45,243.327,841.536,276.508,856.59,306.806C873.069,339.973,908.318,362.354,945.303,360.432" fill="rgba(77, 28, 222, 0.33)" class="triangle-float1"></path><path d="M517.585,646.069C568.994,648.716,621.011,625.21,645.634,580.004C669.416,536.341,653.469,485.034,628.816,441.856C603.897,398.212,567.842,355.811,517.585,355.738C467.24,355.665,428.48,396.588,405.796,441.533C385.44,481.864,388.839,528.256,410.506,567.898C433.222,609.46,470.283,643.633,517.585,646.069" fill="rgba(77, 28, 222, 0.33)" class="triangle-float1"></path><path d="M393.625,315.645C457.978,315.769,526.615,304.58,561.581,250.555C599.173,192.473,595.482,116.932,561.088,56.901C526.492,-3.483,463.217,-42.709,393.625,-42.596C324.222,-42.483,261.487,-2.843,227.101,57.443C193.032,117.173,189.513,192.125,226.782,249.912C261.505,303.752,329.559,315.522,393.625,315.645" fill="rgba(77, 28, 222, 0.33)" class="triangle-float2"></path><path d="M296.41,1032.531C363.187,1028.796,409.539,971.989,440.043,912.47C467.464,858.967,475.872,795.318,444.164,744.238C413.888,695.464,353.777,678.93,296.41,681.083C243.17,683.081,197.252,711.008,166.697,754.653C129.568,807.689,94.582,871.595,121.967,930.259C152.525,995.722,224.279,1036.565,296.41,1032.531" fill="rgba(77, 28, 222, 0.33)" class="triangle-float3"></path><path d="M869.381,528.58C896.864,526.931,918.502,508.302,932.771,484.756C947.717,460.094,957.085,430.747,944.35,404.874C930.228,376.183,901.344,356.953,869.381,355.973C835.708,354.94,802.659,370.736,786.001,400.018C769.506,429.014,773.138,465.255,791.29,493.243C807.953,518.935,838.814,530.414,869.381,528.58" fill="rgba(77, 28, 222, 0.33)" class="triangle-float3"></path><path d="M1013.833,935.588C1063.381,936.557,1105.563,904.582,1131.72,862.49C1159.678,817.501,1176.182,761.846,1150.64,715.443C1124.387,667.748,1068.27,647.524,1013.833,648.318C960.895,649.09,908.388,672.463,883.767,719.334C860.487,763.651,877.87,815.132,903.671,858.03C928.479,899.277,965.709,934.647,1013.833,935.588" fill="rgba(77, 28, 222, 0.33)" class="triangle-float1"></path><path d="M171.7,247.279C205.843,244.086,224.74,210.403,239.717,179.555C252.364,153.507,256.377,124.732,243.877,98.613C229.284,68.119,205.506,37.487,171.7,37.424C137.829,37.361,116.471,69.293,99.055,98.343C80.905,128.617,61.911,163.012,77.385,194.737C94.294,229.404,133.297,250.871,171.7,247.279" fill="rgba(77, 28, 222, 0.33)" class="triangle-float1"></path><path d="M289.11,797.107C328.207,796.296,356.424,764.467,376.103,730.675C395.951,696.594,409.083,656.641,391.46,621.358C372.117,582.632,332.397,556.296,289.11,556.51C246.151,556.722,208.481,584.332,188.499,622.362C169.841,657.874,175.617,699.654,195.633,734.419C215.697,769.267,248.908,797.941,289.11,797.107" fill="rgba(77, 28, 222, 0.33)" class="triangle-float3"></path><path d="M1265.15,748.682C1295.74,747.852,1313.631,717.894,1328.715,691.269C1343.494,665.183,1359.237,634.868,1344.385,608.823C1329.451,582.635,1295.262,578.343,1265.15,579.803C1238.004,581.12,1212.296,592.679,1198.197,615.914C1183.55,640.052,1182.601,669.68,1195.314,694.89C1209.495,723.011,1233.668,749.537,1265.15,748.682" fill="rgba(77, 28, 222, 0.33)" class="triangle-float3"></path><path d="M89.552,738.692C122.695,738.529,148.857,712.112,163.136,682.202C175.538,656.223,168.64,627.29,154.778,602.059C140.233,575.584,119.673,550.537,89.552,548.262C55.747,545.709,21.161,561.092,4.691,590.724C-11.407,619.688,-1.787,654.189,14.699,682.934C31.289,711.861,56.206,738.856,89.552,738.692" fill="rgba(77, 28, 222, 0.33)" class="triangle-float2"></path></g><defs><mask id="SvgjsMask4649"><rect width="1366" height="768" fill="#ffffff"></rect></mask><linearGradient x1="10.94%" y1="119.47%" x2="89.06%" y2="-19.47%" gradientUnits="userSpaceOnUse" id="SvgjsLinearGradient4650"><stop stop-color="rgba(7, 4, 9, 1)" offset="0"></stop><stop stop-color="rgba(46, 15, 71, 1)" offset="0.53"></stop><stop stop-color="rgba(59, 11, 99, 1)" offset="0.93"></stop></linearGradient><style>
                @keyframes float1 {
                    0%{transform: translate(0, 0)}
                    50%{transform: translate(-13px, 0)}
                    100%{transform: translate(0, 0)}
                }

                .triangle-float1 {
                    animation: float1 5s infinite;
                }

                @keyframes float2 {
                    0%{transform: translate(0, 0)}
                    50%{transform: translate(-8px, -8px)}
                    100%{transform: translate(0, 0)}
                }

                .triangle-float2 {
                    animation: float2 4s infinite;
                }

                @keyframes float3 {
                    0%{transform: translate(0, 0)}
                    50%{transform: translate(0, -13px)}
                    100%{transform: translate(0, 0)}
                }

                .triangle-float3 {
                    animation: float3 6s infinite;
                }
            </style></defs></svg>