<svg id="visual" viewBox="0 0 1920 1080" width="1920" height="1080" xmlns="http://www.w3.org/2000/svg" xmlns:xlink="http://www.w3.org/1999/xlink" version="1.1"><path d="M0 388L53.3 418.2C106.7 448.3 213.3 508.7 320 529.2C426.7 549.7 533.3 530.3 640 522.8C746.7 515.3 853.3 519.7 960 551C1066.7 582.3 1173.3 640.7 1280 656.8C1386.7 673 1493.3 647 1600 616C1706.7 585 1813.3 549 1866.7 531L1920 513L1920 1081L1866.7 1081C1813.3 1081 1706.7 1081 1600 1081C1493.3 1081 1386.7 1081 1280 1081C1173.3 1081 1066.7 1081 960 1081C853.3 1081 746.7 1081 640 1081C533.3 1081 426.7 1081 320 1081C213.3 1081 106.7 1081 53.3 1081L0 1081Z" fill="#55238E" stroke-linecap="round" stroke-linejoin="miter"></path></svg>