<svg id="visual" viewBox="0 0 2560 1440" width="2560" height="1440" xmlns="http://www.w3.org/2000/svg" xmlns:xlink="http://www.w3.org/1999/xlink" version="1.1"><path d="M0 791L106.7 779.2C213.3 767.3 426.7 743.7 640 717.3C853.3 691 1066.7 662 1280 684.8C1493.3 707.7 1706.7 782.3 1920 800.3C2133.3 818.3 2346.7 779.7 2453.3 760.3L2560 741L2560 1441L2453.3 1441C2346.7 1441 2133.3 1441 1920 1441C1706.7 1441 1493.3 1441 1280 1441C1066.7 1441 853.3 1441 640 1441C426.7 1441 213.3 1441 106.7 1441L0 1441Z" fill="#55238E" stroke-linecap="round" stroke-linejoin="miter"></path></svg>