<?xml version="1.0" encoding="utf-8"?>
<!-- Generator: Adobe Illustrator 27.0.0, SVG Export Plug-In . SVG Version: 6.00 Build 0)  -->
<svg version="1.1" xmlns="http://www.w3.org/2000/svg" xmlns:xlink="http://www.w3.org/1999/xlink" x="0px" y="0px"
	 viewBox="0 0 2480 3508" enable-background="new 0 0 2480 3508" xml:space="preserve">
<g id="Layer_1">
</g>
<g id="background">
	<linearGradient id="SVGID_1_" gradientUnits="userSpaceOnUse" x1="2470.4883" y1="3997.1973" x2="2567.4324" y2="-373.2129">
		<stop  offset="0" style="stop-color:#7F3F98"/>
		<stop  offset="0.0265" style="stop-color:#793C91"/>
		<stop  offset="0.2137" style="stop-color:#593077"/>
		<stop  offset="0.4043" style="stop-color:#412765"/>
		<stop  offset="0.5973" style="stop-color:#2F2159"/>
		<stop  offset="0.794" style="stop-color:#241D52"/>
		<stop  offset="1" style="stop-color:#211C4F"/>
	</linearGradient>
	<rect x="0" y="-113" fill="url(#SVGID_1_)" width="5043" height="3621"/>
</g>
<g id="typo">
</g>
<g id="space">
	<path id="TELE_LIGHT_00000124854312583806014530000003464883037474825892_" display="none" fill="#2C2B3F" d="M716.746,2688.679
		c3.087-0.987,5.17-3.865,5.129-7.106c-0.517-41.301,3.95-306.684,200.625-391.5C1136,2198,1319.214,2136,1393.107,1955
		S1614,1387,1439,1047S865.587,58.82,618.293-59.09c-245.398-117.006,1292.833-1.794,1316.432-0.021
		c0.184,0.014,0.367,0.021,0.551,0.021h875.657h2285.085c4.073,0,7.375,3.302,7.375,7.376v2166.35c0,4.862-4.622,8.396-9.312,7.117
		c-86.126-23.498-754.413-194.04-1367.582-6.606c-458.079,115.95-626.271,332.975-634.979,348.137
		c-0.278,0.484-0.561,0.969-0.837,1.46c-9.803,17.463-167.177,371.203-672.684,311.033
		c-518.603-61.729-1185.37-194.29-1573.305-23.028c-0.592,0.261-1.153,0.604-1.658,1.008c-26.357,21.105-39.793,32.426-46.34,38.121
		c-3.156,2.746-7.958,2.311-10.58-0.949l-72.873-90.601C709.998,2696.292,711.813,2690.256,716.746,2688.679L716.746,2688.679z"/>
	<g id="TELE_LIGHT_00000085959690531172860040000015304658825262690739_" display="none">
		<g display="inline">
			<g>
				<defs>
					<path id="SVGID_00000114057221312892725900000004674069816447915674_" d="M716.746,2688.679
						c3.087-0.987,5.17-3.865,5.129-7.106c-0.517-41.301,3.95-306.684,200.625-391.5C1136,2198,1319.214,2136,1393.107,1955
						S1614,1387,1439,1047S865.587,58.82,618.293-59.09c-245.398-117.006,1292.833-1.794,1316.432-0.021
						c0.184,0.014,0.367,0.021,0.551,0.021h875.657h2285.085c4.073,0,7.375,3.302,7.375,7.376v2166.35
						c0,4.862-4.622,8.396-9.312,7.117c-86.126-23.498-754.413-194.04-1367.582-6.606
						c-458.079,115.95-626.271,332.975-634.979,348.137c-0.278,0.484-0.561,0.969-0.837,1.46
						c-9.803,17.463-167.177,371.203-672.684,311.033c-518.603-61.729-1185.37-194.29-1573.305-23.028
						c-0.592,0.261-1.153,0.604-1.658,1.008c-26.357,21.105-39.793,32.426-46.34,38.121c-3.156,2.746-7.958,2.311-10.58-0.949
						l-72.873-90.601C709.998,2696.292,711.813,2690.256,716.746,2688.679L716.746,2688.679z"/>
				</defs>
				<clipPath id="SVGID_00000147179072864721144080000008895086656948851594_">
					<use xlink:href="#SVGID_00000114057221312892725900000004674069816447915674_"  overflow="visible"/>
				</clipPath>
				<g clip-path="url(#SVGID_00000147179072864721144080000008895086656948851594_)">
					<g>
						<defs>
							
								<rect id="SVGID_00000127735723184564960200000014274874254855052951_" x="586.745" y="-116.494" width="4521.65" height="2915.179"/>
						</defs>
						<clipPath id="SVGID_00000178196768684768747090000007716782469434086063_">
							<use xlink:href="#SVGID_00000127735723184564960200000014274874254855052951_"  overflow="visible"/>
						</clipPath>
						<g clip-path="url(#SVGID_00000178196768684768747090000007716782469434086063_)">
							<defs>
								
									<rect id="SVGID_00000036245036129445846810000001038222375579034507_" x="586.745" y="-116.494" width="4521.65" height="2915.179"/>
							</defs>
							<clipPath id="SVGID_00000050661306079344164910000001459459394226540181_">
								<use xlink:href="#SVGID_00000036245036129445846810000001038222375579034507_"  overflow="visible"/>
							</clipPath>
							<g clip-path="url(#SVGID_00000050661306079344164910000001459459394226540181_)">
								
									<image overflow="visible" width="9421" height="6074" xlink:href="E4CBE15FD0C74F6A.jpg"  transform="matrix(0.48 0 0 0.48 586.56 -116.8)">
								</image>
							</g>
						</g>
					</g>
				</g>
			</g>
		</g>
		<defs>
			<filter id="Adobe_OpacityMaskFilter" filterUnits="userSpaceOnUse" x="586.745" y="-116.495" width="4521.65" height="2915.179">
				
					<feColorMatrix  type="matrix" values="-1 0 0 0 1  0 -1 0 0 1  0 0 -1 0 1  0 0 0 1 0" color-interpolation-filters="sRGB" result="source"/>
			</filter>
		</defs>
		
			<mask maskUnits="userSpaceOnUse" x="586.745" y="-116.495" width="4521.65" height="2915.179" id="SVGID_00000016059651078132580240000002865469280933446817_" display="inline">
			<g filter="url(#Adobe_OpacityMaskFilter)">
				
					<image overflow="visible" width="18816" height="12123" xlink:href="E4CBE15FD0C74F6E.jpg"  transform="matrix(0.24 0 0 0.24 589.68 -113.68)">
				</image>
			</g>
		</mask>
		<g display="inline" opacity="0.77" mask="url(#SVGID_00000016059651078132580240000002865469280933446817_)">
			<g>
				<defs>
					<path id="SVGID_00000019673845429422268240000013572419963997644712_" d="M716.746,2688.679
						c3.087-0.987,5.17-3.865,5.129-7.106c-0.517-41.301,3.95-306.684,200.625-391.5C1136,2198,1319.214,2136,1393.107,1955
						S1614,1387,1439,1047S865.587,58.82,618.293-59.09c-245.398-117.006,1292.833-1.794,1316.432-0.021
						c0.184,0.014,0.367,0.021,0.551,0.021h875.657h2285.085c4.073,0,7.375,3.302,7.375,7.376v2166.35
						c0,4.862-4.622,8.396-9.312,7.117c-86.126-23.498-754.413-194.04-1367.582-6.606
						c-458.079,115.95-626.271,332.975-634.979,348.137c-0.278,0.484-0.561,0.969-0.837,1.46
						c-9.803,17.463-167.177,371.203-672.684,311.033c-518.603-61.729-1185.37-194.29-1573.305-23.028
						c-0.592,0.261-1.153,0.604-1.658,1.008c-26.357,21.105-39.793,32.426-46.34,38.121c-3.156,2.746-7.958,2.311-10.58-0.949
						l-72.873-90.601C709.998,2696.292,711.813,2690.256,716.746,2688.679L716.746,2688.679z"/>
				</defs>
				<clipPath id="SVGID_00000062156203782719387730000009620145526931913350_">
					<use xlink:href="#SVGID_00000019673845429422268240000013572419963997644712_"  overflow="visible"/>
				</clipPath>
				
					<rect x="586.745" y="-116.495" clip-path="url(#SVGID_00000062156203782719387730000009620145526931913350_)" width="4521.65" height="2915.179"/>
			</g>
		</g>
	</g>
	
		<path id="TELE_LIGHT_00000039120469869295198880000001500679805010604195_" display="none" fill="none" stroke="#2B296B" stroke-width="60" stroke-miterlimit="10" d="
		M839,2702l-42-67c2.919-0.951-23-21-14-25c-0.489-39.789,5.032-214.289,191-296c201.877-88.701,403.13-172.628,473-347
		s226-538,59-911C1364.559,769.289,958.191,73.712,712.07-33c-236.68-102.618,1222.45-1.728,1244.765-0.02
		c0.174,0.013,0.347,0.02,0.521,0.02h827.986h2160.684c3.852,0,6.974,3.181,6.974,7.106v2087.024c0,4.684-43.565-27.896-48-29.129
		c-81.437-22.637-674.148-150.949-1253.936,29.621c-433.141,111.705-592.176,320.782-600.411,335.389
		c-0.263,0.466-0.408,1.025-0.791,1.407C2951,2497,2891.787,2756.027,2413.8,2698.06
		c-490.37-59.468-1120.838-187.175-1487.653-22.185c-0.56,0.252-1.09,0.582-1.568,0.971C899.656,2697.179,812.191,2684.513,806,2690
		"/>
	<g id="TELE_LIGHT" display="none">
		
			<image display="inline" overflow="visible" opacity="0.65" width="18970" height="12420" xlink:href="E4CBE15FD0C74F6E.png"  transform="matrix(0.24 0 0 0.24 577.32 -154.6)">
		</image>
		<g display="inline">
			<path fill="none" stroke="#32327B" stroke-width="60" stroke-miterlimit="10" d="M763.73,2659.26
				c3.021-0.965-9.683-4.089-9.723-7.26c-0.506-40.41,18.607-299.759,211.051-382.745
				c208.906-90.086,388.179-150.749,460.482-327.843c72.303-177.094,216.14-555.744,44.906-888.408S909.369,86.145,667.396-29.221
				c-240.118-114.482,1265.017-1.755,1288.109-0.02c0.18,0.014,0.359,0.02,0.539,0.02h856.817h2235.921
				c3.986,0,7.217,3.231,7.217,7.216v2119.607c0,4.757-4.523,8.215-9.112,6.963c-84.273-22.991-738.182-189.853-1338.158-6.463
				c-448.223,113.448-612.796,325.79-621.318,340.625c-0.272,0.474-0.549,0.948-0.819,1.429
				c-9.592,17.086-163.58,363.193-658.211,304.322c-507.445-60.397-1159.867-190.097-1539.455-22.531
				c-0.579,0.256-1.128,0.591-1.622,0.987c-25.79,20.65-38.937,31.727-45.343,37.299c-3.088,2.686-7.787,2.261-10.352-0.928
				L755.007,2627c-3.176-3.948-5.827,104.542-1,103L763.73,2659.26z"/>
		</g>
	</g>
</g>
<g id="hills">
	<g id="clouds">
		
			<linearGradient id="SVGID_00000028306797697406159620000009479786719859737481_" gradientUnits="userSpaceOnUse" x1="784.5572" y1="3270.79" x2="793.0004" y2="2890.1531">
			<stop  offset="0" style="stop-color:#2D2B71;stop-opacity:0"/>
			<stop  offset="0.0491" style="stop-color:#403A7A;stop-opacity:0.0491"/>
			<stop  offset="0.151" style="stop-color:#63588D;stop-opacity:0.151"/>
			<stop  offset="0.2574" style="stop-color:#8376A2;stop-opacity:0.2574"/>
			<stop  offset="0.3662" style="stop-color:#A193B6;stop-opacity:0.3662"/>
			<stop  offset="0.4779" style="stop-color:#BCAFC9;stop-opacity:0.4779"/>
			<stop  offset="0.5934" style="stop-color:#D4C8DA;stop-opacity:0.5934"/>
			<stop  offset="0.7144" style="stop-color:#E7DBE8;stop-opacity:0.7144"/>
			<stop  offset="0.8445" style="stop-color:#F3E8F1;stop-opacity:0.8445"/>
			<stop  offset="1" style="stop-color:#F8EDF5"/>
		</linearGradient>
		<path opacity="0.7" fill="url(#SVGID_00000028306797697406159620000009479786719859737481_)" d="M789,2908
			c-104.382,0-189,72.754-189,162.5c0,36.561,14.046,70.299,37.747,97.449c1.016-0.221,2.053-0.34,3.096-0.34
			c3.044-0.001,6.09,0.003,9.131-0.126c0.401-0.017,1.806-0.147,2.716-0.216c0.633-0.364,0.575-0.302,0.137-0.01
			c0.012-0.001,0.025-0.002,0.037-0.003c1.7-0.714,3.514-1.155,5.619-1.25c4.179-0.187,8.105,1.851,11.096,4.596
			c2.887,2.65,4.596,7.247,4.596,11.096c0,3.516-1.651,8.819-4.596,11.096c-0.883,0.683-1.737,1.276-2.579,1.807
			C699.924,3218.551,742.496,3233,789,3233c104.382,0,189-72.754,189-162.5S893.382,2908,789,2908z"/>
		
			<linearGradient id="SVGID_00000054242663536995328920000004888646152653483436_" gradientUnits="userSpaceOnUse" x1="1836.5571" y1="3348.79" x2="1845.0005" y2="2968.1531">
			<stop  offset="0" style="stop-color:#2D2B71;stop-opacity:0"/>
			<stop  offset="0.0491" style="stop-color:#403A7A;stop-opacity:0.0491"/>
			<stop  offset="0.151" style="stop-color:#63588D;stop-opacity:0.151"/>
			<stop  offset="0.2574" style="stop-color:#8376A2;stop-opacity:0.2574"/>
			<stop  offset="0.3662" style="stop-color:#A193B6;stop-opacity:0.3662"/>
			<stop  offset="0.4779" style="stop-color:#BCAFC9;stop-opacity:0.4779"/>
			<stop  offset="0.5934" style="stop-color:#D4C8DA;stop-opacity:0.5934"/>
			<stop  offset="0.7144" style="stop-color:#E7DBE8;stop-opacity:0.7144"/>
			<stop  offset="0.8445" style="stop-color:#F3E8F1;stop-opacity:0.8445"/>
			<stop  offset="1" style="stop-color:#F8EDF5"/>
		</linearGradient>
		<path opacity="0.7" fill="url(#SVGID_00000054242663536995328920000004888646152653483436_)" d="M1841,2986
			c-104.382,0-189,72.754-189,162.5c0,36.561,14.046,70.299,37.747,97.449c1.016-0.221,2.053-0.34,3.096-0.34
			c3.044-0.001,6.09,0.003,9.131-0.126c0.401-0.017,1.806-0.147,2.716-0.216c0.633-0.364,0.575-0.302,0.137-0.01
			c0.012-0.001,0.025-0.002,0.037-0.003c1.7-0.714,3.514-1.155,5.619-1.25c4.179-0.187,8.105,1.851,11.096,4.596
			c2.887,2.65,4.596,7.247,4.596,11.096c0,3.516-1.651,8.819-4.596,11.096c-0.883,0.683-1.737,1.276-2.579,1.807
			c32.923,23.95,75.495,38.399,121.999,38.399c104.382,0,189-72.754,189-162.5S1945.382,2986,1841,2986z"/>
		
			<linearGradient id="SVGID_00000050659425346088240280000008788939443168612006_" gradientUnits="userSpaceOnUse" x1="2028.3673" y1="3277.1428" x2="2032.4203" y2="3094.4304">
			<stop  offset="0" style="stop-color:#2D2B71;stop-opacity:0"/>
			<stop  offset="0.0491" style="stop-color:#403A7A;stop-opacity:0.0491"/>
			<stop  offset="0.151" style="stop-color:#63588D;stop-opacity:0.151"/>
			<stop  offset="0.2574" style="stop-color:#8376A2;stop-opacity:0.2574"/>
			<stop  offset="0.3662" style="stop-color:#A193B6;stop-opacity:0.3662"/>
			<stop  offset="0.4779" style="stop-color:#BCAFC9;stop-opacity:0.4779"/>
			<stop  offset="0.5934" style="stop-color:#D4C8DA;stop-opacity:0.5934"/>
			<stop  offset="0.7144" style="stop-color:#E7DBE8;stop-opacity:0.7144"/>
			<stop  offset="0.8445" style="stop-color:#F3E8F1;stop-opacity:0.8445"/>
			<stop  offset="1" style="stop-color:#F8EDF5"/>
		</linearGradient>
		
			<ellipse opacity="0.7" fill="url(#SVGID_00000050659425346088240280000008788939443168612006_)" cx="2030.5" cy="3181" rx="95.5" ry="78"/>
		
			<linearGradient id="SVGID_00000096776487081862697840000014112265905581790864_" gradientUnits="userSpaceOnUse" x1="920.3674" y1="3112.1428" x2="924.4203" y2="2929.4304">
			<stop  offset="0" style="stop-color:#2D2B71;stop-opacity:0"/>
			<stop  offset="0.0491" style="stop-color:#403A7A;stop-opacity:0.0491"/>
			<stop  offset="0.151" style="stop-color:#63588D;stop-opacity:0.151"/>
			<stop  offset="0.2574" style="stop-color:#8376A2;stop-opacity:0.2574"/>
			<stop  offset="0.3662" style="stop-color:#A193B6;stop-opacity:0.3662"/>
			<stop  offset="0.4779" style="stop-color:#BCAFC9;stop-opacity:0.4779"/>
			<stop  offset="0.5934" style="stop-color:#D4C8DA;stop-opacity:0.5934"/>
			<stop  offset="0.7144" style="stop-color:#E7DBE8;stop-opacity:0.7144"/>
			<stop  offset="0.8445" style="stop-color:#F3E8F1;stop-opacity:0.8445"/>
			<stop  offset="1" style="stop-color:#F8EDF5"/>
		</linearGradient>
		
			<ellipse opacity="0.7" fill="url(#SVGID_00000096776487081862697840000014112265905581790864_)" cx="922.5" cy="3016" rx="95.5" ry="78"/>
	</g>
	
		<linearGradient id="SVGID_00000115508226049580856980000011737844274881435558_" gradientUnits="userSpaceOnUse" x1="757.2045" y1="3149.8799" x2="757.2045" y2="3477.2334" gradientTransform="matrix(-1 0 0 1 2978.2722 0)">
		<stop  offset="0" style="stop-color:#6B195D;stop-opacity:0.6"/>
		<stop  offset="1" style="stop-color:#3F4097"/>
	</linearGradient>
	<path fill="url(#SVGID_00000115508226049580856980000011737844274881435558_)" d="M5290,3206c0,0-237.171-160.759-752-213
		c-269.379-27.334-782.131,30.442-1017.135,37.475c-227.729,117.616-332.729,151.616-332.729,151.616s-236,94-366,113
		c-127.52,18.637-332.673,41.132-525.71,25.104c-13.29-1.104-14.558-0.646-21.759-1.76
		c-230.326-35.635-320.531-43.344-696.531-145.182c-258-74.162-564.755-161.489-668-174.162c-277-34-571,96-631,111
		s-313.138,95.028-394,107c-412,61-685-94-685-94l-48,302l2456,151L5234,3744L5290,3206z"/>
	<g>
		
			<linearGradient id="SVGID_00000055701691037670909230000013921416698052574104_" gradientUnits="userSpaceOnUse" x1="1148.8516" y1="3324.3987" x2="1153.4991" y2="3114.8789">
			<stop  offset="0" style="stop-color:#2D2B71;stop-opacity:0"/>
			<stop  offset="0.1029" style="stop-color:#463F7D;stop-opacity:0.072"/>
			<stop  offset="0.2326" style="stop-color:#61558D;stop-opacity:0.1628"/>
			<stop  offset="0.3677" style="stop-color:#78699B;stop-opacity:0.2574"/>
			<stop  offset="0.5075" style="stop-color:#8A7AA7;stop-opacity:0.3553"/>
			<stop  offset="0.6541" style="stop-color:#9887B1;stop-opacity:0.4579"/>
			<stop  offset="0.8117" style="stop-color:#A290B8;stop-opacity:0.5682"/>
			<stop  offset="1" style="stop-color:#A593BA;stop-opacity:0.7"/>
		</linearGradient>
		<polygon fill="url(#SVGID_00000055701691037670909230000013921416698052574104_)" points="1123,3303 1154,3124.732 1175.652,3303 
					"/>
		
			<linearGradient id="SVGID_00000030488571864371412270000013912721277447381639_" gradientUnits="userSpaceOnUse" x1="1188.8516" y1="3280.3987" x2="1193.4991" y2="3070.8789">
			<stop  offset="0" style="stop-color:#2D2B71;stop-opacity:0"/>
			<stop  offset="0.1029" style="stop-color:#463F7D;stop-opacity:0.072"/>
			<stop  offset="0.2326" style="stop-color:#61558D;stop-opacity:0.1628"/>
			<stop  offset="0.3677" style="stop-color:#78699B;stop-opacity:0.2574"/>
			<stop  offset="0.5075" style="stop-color:#8A7AA7;stop-opacity:0.3553"/>
			<stop  offset="0.6541" style="stop-color:#9887B1;stop-opacity:0.4579"/>
			<stop  offset="0.8117" style="stop-color:#A290B8;stop-opacity:0.5682"/>
			<stop  offset="1" style="stop-color:#A593BA;stop-opacity:0.7"/>
		</linearGradient>
		<polygon fill="url(#SVGID_00000030488571864371412270000013912721277447381639_)" points="1163,3259 1194,3080.732 1215.652,3259 
					"/>
		
			<linearGradient id="SVGID_00000108281953202261355910000009732215549598167987_" gradientUnits="userSpaceOnUse" x1="1231.6194" y1="3358.8669" x2="1238.6042" y2="3043.9758">
			<stop  offset="0" style="stop-color:#2D2B71;stop-opacity:0"/>
			<stop  offset="0.1029" style="stop-color:#463F7D;stop-opacity:0.072"/>
			<stop  offset="0.2326" style="stop-color:#61558D;stop-opacity:0.1628"/>
			<stop  offset="0.3677" style="stop-color:#78699B;stop-opacity:0.2574"/>
			<stop  offset="0.5075" style="stop-color:#8A7AA7;stop-opacity:0.3553"/>
			<stop  offset="0.6541" style="stop-color:#9887B1;stop-opacity:0.4579"/>
			<stop  offset="0.8117" style="stop-color:#A290B8;stop-opacity:0.5682"/>
			<stop  offset="1" style="stop-color:#A593BA;stop-opacity:0.7"/>
		</linearGradient>
		<polygon fill="url(#SVGID_00000108281953202261355910000009732215549598167987_)" points="1206,3327 1237,3058.732 1258.652,3327 
					"/>
		
			<linearGradient id="SVGID_00000049911215109875061360000015839503302173357246_" gradientUnits="userSpaceOnUse" x1="1257.6194" y1="3438.8669" x2="1264.6042" y2="3123.9758">
			<stop  offset="0" style="stop-color:#2D2B71;stop-opacity:0"/>
			<stop  offset="0.1029" style="stop-color:#463F7D;stop-opacity:0.072"/>
			<stop  offset="0.2326" style="stop-color:#61558D;stop-opacity:0.1628"/>
			<stop  offset="0.3677" style="stop-color:#78699B;stop-opacity:0.2574"/>
			<stop  offset="0.5075" style="stop-color:#8A7AA7;stop-opacity:0.3553"/>
			<stop  offset="0.6541" style="stop-color:#9887B1;stop-opacity:0.4579"/>
			<stop  offset="0.8117" style="stop-color:#A290B8;stop-opacity:0.5682"/>
			<stop  offset="1" style="stop-color:#A593BA;stop-opacity:0.7"/>
		</linearGradient>
		<polygon fill="url(#SVGID_00000049911215109875061360000015839503302173357246_)" points="1232,3407 1263,3138.732 1284.652,3407 
					"/>
	</g>
	<g id="Layer_5">
		
			<linearGradient id="SVGID_00000023995915990631386150000017920180856386791848_" gradientUnits="userSpaceOnUse" x1="137.7432" y1="3321.0972" x2="5422.7671" y2="3321.0972">
			<stop  offset="0" style="stop-color:#272760"/>
			<stop  offset="1" style="stop-color:#3F4097"/>
		</linearGradient>
		<path fill="url(#SVGID_00000023995915990631386150000017920180856386791848_)" d="M1194.137,3214.927
			c67.299,15.499,127.838-21.622,195.419-35.843c0,0,146.644-39.939,210.445-45.084c62-5,151.865-19.265,242.932,6.867
			c104.568,30.007,214.695,35.946,320.319,9.901c64.366-15.872,138.594-42.716,218.965-87.099
			C2646,2918,2707.885,2882.899,2936.943,2901.95C3166,2921,3506,3022,3596,3054c44.138,15.693,485.886,187.829,896.868,76.814
			C5066,2976,5372,3187,5372,3187v558l-3166-22l-2243-8l-114.388-436.902l509.355-183.255l127.388-30.347
			c0,0,311.742-15.549,511.162,88.111"/>
	</g>
	<g id="trees">
		
			<linearGradient id="SVGID_00000134249324223338848530000017497132602241292734_" gradientUnits="userSpaceOnUse" x1="2143.8516" y1="3496.3987" x2="2148.499" y2="3286.8789">
			<stop  offset="0" style="stop-color:#313284;stop-opacity:0"/>
			<stop  offset="0.1054" style="stop-color:#4C458E;stop-opacity:0.0738"/>
			<stop  offset="0.2348" style="stop-color:#675B9A;stop-opacity:0.1643"/>
			<stop  offset="0.3695" style="stop-color:#7D6EA5;stop-opacity:0.2586"/>
			<stop  offset="0.509" style="stop-color:#8E7EAE;stop-opacity:0.3563"/>
			<stop  offset="0.6551" style="stop-color:#9B8AB5;stop-opacity:0.4586"/>
			<stop  offset="0.8122" style="stop-color:#A391B9;stop-opacity:0.5686"/>
			<stop  offset="1" style="stop-color:#A594BB;stop-opacity:0.7"/>
		</linearGradient>
		<polygon fill="url(#SVGID_00000134249324223338848530000017497132602241292734_)" points="2118,3475 2149,3296.732 2170.652,3475 
					"/>
		
			<linearGradient id="SVGID_00000065773454571609574850000011584029029651275964_" gradientUnits="userSpaceOnUse" x1="2183.8516" y1="3452.3987" x2="2188.499" y2="3242.8789">
			<stop  offset="0" style="stop-color:#313284;stop-opacity:0"/>
			<stop  offset="0.1054" style="stop-color:#4C458E;stop-opacity:0.0738"/>
			<stop  offset="0.2348" style="stop-color:#675B9A;stop-opacity:0.1643"/>
			<stop  offset="0.3695" style="stop-color:#7D6EA5;stop-opacity:0.2586"/>
			<stop  offset="0.509" style="stop-color:#8E7EAE;stop-opacity:0.3563"/>
			<stop  offset="0.6551" style="stop-color:#9B8AB5;stop-opacity:0.4586"/>
			<stop  offset="0.8122" style="stop-color:#A391B9;stop-opacity:0.5686"/>
			<stop  offset="1" style="stop-color:#A594BB;stop-opacity:0.7"/>
		</linearGradient>
		<polygon fill="url(#SVGID_00000065773454571609574850000011584029029651275964_)" points="2158,3431 2189,3252.732 2210.652,3431 
					"/>
		
			<linearGradient id="SVGID_00000103957185526493131070000016244198773118715808_" gradientUnits="userSpaceOnUse" x1="2226.6194" y1="3530.8669" x2="2233.6042" y2="3215.9758">
			<stop  offset="0" style="stop-color:#313284;stop-opacity:0"/>
			<stop  offset="0.1054" style="stop-color:#4C458E;stop-opacity:0.0738"/>
			<stop  offset="0.2348" style="stop-color:#675B9A;stop-opacity:0.1643"/>
			<stop  offset="0.3695" style="stop-color:#7D6EA5;stop-opacity:0.2586"/>
			<stop  offset="0.509" style="stop-color:#8E7EAE;stop-opacity:0.3563"/>
			<stop  offset="0.6551" style="stop-color:#9B8AB5;stop-opacity:0.4586"/>
			<stop  offset="0.8122" style="stop-color:#A391B9;stop-opacity:0.5686"/>
			<stop  offset="1" style="stop-color:#A594BB;stop-opacity:0.7"/>
		</linearGradient>
		<polygon fill="url(#SVGID_00000103957185526493131070000016244198773118715808_)" points="2201,3499 2232,3230.732 2253.652,3499 
					"/>
		
			<linearGradient id="SVGID_00000011744679754134940380000015013159388268117384_" gradientUnits="userSpaceOnUse" x1="2252.6194" y1="3610.8669" x2="2259.6042" y2="3295.9758">
			<stop  offset="0" style="stop-color:#313284;stop-opacity:0"/>
			<stop  offset="0.1054" style="stop-color:#4C458E;stop-opacity:0.0738"/>
			<stop  offset="0.2348" style="stop-color:#675B9A;stop-opacity:0.1643"/>
			<stop  offset="0.3695" style="stop-color:#7D6EA5;stop-opacity:0.2586"/>
			<stop  offset="0.509" style="stop-color:#8E7EAE;stop-opacity:0.3563"/>
			<stop  offset="0.6551" style="stop-color:#9B8AB5;stop-opacity:0.4586"/>
			<stop  offset="0.8122" style="stop-color:#A391B9;stop-opacity:0.5686"/>
			<stop  offset="1" style="stop-color:#A594BB;stop-opacity:0.7"/>
		</linearGradient>
		<polygon fill="url(#SVGID_00000011744679754134940380000015013159388268117384_)" points="2227,3579 2258,3310.732 2279.652,3579 
					"/>
	</g>
	
		<linearGradient id="SVGID_00000048474841030425514850000002825549820141974146_" gradientUnits="userSpaceOnUse" x1="139.8415" y1="3365.2495" x2="5090.5557" y2="3365.2495">
		<stop  offset="0" style="stop-color:#221D50"/>
		<stop  offset="1" style="stop-color:#1D1648"/>
	</linearGradient>
	<path fill="url(#SVGID_00000048474841030425514850000002825549820141974146_)" d="M-17.363,3009.599
		c0,0,424.906-9.832,691.635,165.785C902,3293,1007,3327,1007,3327s236,94,366,113c127.52,18.637,332.673,41.132,525.71,25.104
		c13.29-1.104,14.558-0.646,21.759-1.76C2150.795,3427.709,2241,3420,2617,3318.162C2875,3244,3181.756,3156.673,3285,3144
		c277-34,571,96,631,111s313.138,95.028,394,107c412,61,685-94,685-94l48,302l-2456,151l-2718-65L-17.363,3009.599z"/>
</g>
<g id="girl">
	<g>
		<g>
			<g>
				<path fill="#FFFFFF" d="M356.941,3145.517c-1.728,0-3.383-1.519-3.303-3.303c0.08-1.79,1.451-3.303,3.303-3.303
					c1.728,0,3.383,1.519,3.303,3.303C360.163,3144.004,358.792,3145.517,356.941,3145.517L356.941,3145.517z"/>
			</g>
		</g>
		<g>
			<path fill="#2F1944" d="M450.589,2993.951c-13.478,13.598-26.841,26.898-26.841,26.898l10.175,10.779l28.587-24.463
				L450.589,2993.951z"/>
			<path fill="#2F1944" d="M472.156,2957.747c-19.98,15.927-30.278,27.043-29.409,30.628c1.271,5.245,19.394,24.279,24.119,26.66
				c4.725,2.381,34.47-23.829,34.47-23.829C489.521,2966.139,472.156,2957.747,472.156,2957.747z"/>
			<path fill="#284264" d="M466.266,2962.535c1.86-1.543,3.82-3.138,5.889-4.788c0,0,17.365,8.392,29.18,33.459
				c0,0-2.462,2.169-6.079,5.201C485.601,2988.643,471.72,2972.024,466.266,2962.535z"/>
			<path fill="#FBDCEA" d="M506.658,2917.819c-29.716,23.761-40.259,31.571-40.385,35.902c-0.202,6.914,29.412,42.686,38.667,43.933
				c9.256,1.247,58.923-43.508,58.923-43.508L506.658,2917.819z"/>
			<path fill="#2F1944" d="M506.658,2917.819l57.205,36.327c0,0-2.531,2.28-6.549,5.791c-2.383,0.49-7.586-2.029-21.491-11.324
				c-21.546-14.403-33.627-22.135-34.542-26.503C503.001,2920.74,504.792,2919.311,506.658,2917.819z"/>
			<polygon fill="#2F1944" points="614.517,2944.173 738.693,3278.098 725.173,3278.098 614.422,2951.295 500.259,3278.098 
				487.02,3278.098 			"/>
			<path fill="#2F1944" d="M614.698,2951.295L614.698,2951.295c-5.109,0-9.25-4.141-9.25-9.25v-4.995h18.5v4.995
				C623.948,2947.154,619.806,2951.295,614.698,2951.295z"/>
			<g>
				<path fill="#FBDCEA" d="M753.501,2810.776c0,0-107.582,93.882-185.104,146.002c-2.942,1.978-7.993,1.774-12.239-0.93
					l-43.343-29.75c-8.88-6.104-13.956-11.807,0.555-27.502c11.35-12.275,114.086-124.904,174.688-168.131L753.501,2810.776z"/>
			</g>
			<path fill="#2F1944" d="M674.271,2740.892c4.783-3.796,9.396-7.295,13.788-10.427l65.442,80.312c0,0-3.475,3.033-9.627,8.311
				C728.509,2804.622,695.891,2771.607,674.271,2740.892z"/>
			<path fill="#2F1944" d="M612.857,2944.135c31.529-1.138,32.098-36.98,12.754-52.341c-19.343-15.361-44.945,6.543-41.531,28.446
				S601.715,2944.537,612.857,2944.135z"/>
			<path fill="#2F1944" d="M429.64,3021.552c8.655,9.893,11.151,10.92,7.167,14.067c-3.984,3.147-6.1,0.143-11.649-5.318
				c-5.549-5.461-10.14-7.683-5.464-11.663S425.245,3016.529,429.64,3021.552z"/>
			<path fill="#2F1944" d="M676.757,2732.496c25.972,38.065,70.548,80.816,78.972,87.849s53.598-27.7,52.556-42.009
				c-1.042-14.308-73.532-89.051-85.529-95.051C714.633,2679.223,669.046,2721.195,676.757,2732.496z"/>
			<path fill="#FBDCEA" d="M615.539,2905.307c10.471,3.035,9.925,22.947-6.202,20.671
				C593.21,2923.702,599.182,2900.566,615.539,2905.307z"/>
			<path fill="#27113F" d="M618.249,2915.409c0.861,6.929-10.995,11.641-13.732,1.575
				C601.78,2906.918,616.904,2904.584,618.249,2915.409z"/>
		</g>
		<g>
			<g>
				<g>
					<path fill="#A93C96" d="M368.98,2968.713c13.06-8.848,29.886-24.239,39.048-35.35c9.163-11.111,29.417-43.114,29.417-43.114
						l-14.558-10.776l-31.886,37.422l-36.626,25.3C354.376,2942.195,362.3,2973.24,368.98,2968.713z"/>
				</g>
			</g>
		</g>
		<g>
			<g>
				<g>
					<g>
						<path fill="#A93C96" d="M451.509,2872.887c-0.573-0.782-1.679-0.944-2.497-0.423l-5.085,3.242
							c-0.159,0.102-0.366,0.091-0.514-0.027l0,0c-0.218-0.174-0.222-0.504-0.009-0.683l6.809-5.74
							c0.78-0.658,0.766-1.717-0.031-2.354l0,0c-0.797-0.637-2.088-0.62-2.868,0.038l-6.944,5.854
							c-0.161,0.136-0.396,0.139-0.561,0.007l-0.117-0.093c-0.191-0.152-0.222-0.43-0.069-0.621l6.288-7.871
							c0.605-0.757,0.562-1.875-0.155-2.527c-0.785-0.715-1.997-0.609-2.65,0.207l-6.327,7.919c-0.152,0.191-0.43,0.222-0.621,0.069
							l-0.37-0.296c-0.173-0.139-0.217-0.384-0.102-0.574l4.872-8.059c0.501-0.829,0.313-1.932-0.482-2.486
							c-0.871-0.607-2.06-0.344-2.6,0.55c0,0-8.089,11.89-9.505,13.646l-1.549-5.028c-0.112-0.999-1.012-1.718-2.01-1.606l0,0
							c-0.999,0.112-1.718,1.012-1.606,2.01l-0.061,11.717c0.073,0.651,1.095,1.473,2.075,1.937
							c7.855,7.323,9.125,8.386,11.424,10.165l6.858-9.204c1.979-2.656,4.424-4.929,7.217-6.709l0.701-0.447
							C451.903,2874.938,452.137,2873.744,451.509,2872.887z"/>
					</g>
				</g>
			</g>
		</g>
		<g>
			<g>
				<g>
					<g>
						<g>
							<g>
								<g>
									<g>
										<g>
											<path fill="#F07162" d="M471.935,2974.414c0.032-0.181,0.177-0.33,0.369-0.356c0.238-0.033,0.459,0.133,0.492,0.371
												c0.47,3.344,2.282,8.353,2.301,8.403c0.082,0.226-0.035,0.477-0.261,0.559c-0.227,0.082-0.477-0.035-0.559-0.261
												c-0.075-0.209-1.861-5.145-2.344-8.58C471.927,2974.503,471.928,2974.457,471.935,2974.414z"/>
										</g>
									</g>
								</g>
							</g>
						</g>
					</g>
				</g>
			</g>
		</g>
		<g>
			<g>
				<g>
					<g>
						<g>
							<g>
								<g>
									<g>
										<g>
											<path fill="#F07162" d="M466.494,2973.461c0.036-0.203,0.211-0.358,0.425-0.361c0.241-0.002,0.438,0.191,0.441,0.432
												c0.044,4.109,1.453,7.953,1.467,7.991c0.084,0.227-0.032,0.477-0.257,0.561c-0.226,0.084-0.477-0.031-0.561-0.257
												c-0.06-0.162-1.476-4.02-1.522-8.286C466.487,2973.514,466.489,2973.487,466.494,2973.461z"/>
										</g>
									</g>
								</g>
							</g>
						</g>
					</g>
				</g>
			</g>
		</g>
		<g>
			<g>
				<g>
					<path fill="#2D2C70" d="M326.246,2915.19c0,0-6.887-4.913-14.345-2.463c-7.457,2.45-11.662,15.386-18.056,19.687
						c0,0,7.915,7.415,16.876,7.906c8.96,0.491,22.572-13.747,16.48-24.064L326.246,2915.19z"/>
				</g>
			</g>
			<g>
				<g>
					<path fill="#2D2C71" d="M348.047,2878.636c0,0,4.878-1.115,9.804,2.87c4.926,3.986,7.671,40.48-3.267,43.556
						c-16.332,4.592-14.952-38.124-14.952-38.124L348.047,2878.636z"/>
				</g>
			</g>
			<g>
				<g>
					<g>
						<path fill="#A93C96" d="M359.307,2900.324c2.405,8.361,5.898,20.933-3.057,25.898l4.631,19.163l-22.691,0.458l-14.082-61.617
							c0,0,6.24-0.752,6.363-0.253c0.082,0.33,14.77,1.536,22.145,4.197C357.176,2889.816,357.809,2895.114,359.307,2900.324z"/>
					</g>
				</g>
			</g>
			<g>
				<g>
					<g>
						<path fill="#ED7163" d="M353.237,2913.04c-0.085,0.021-0.178-0.019-0.218-0.103c-0.047-0.094-0.007-0.21,0.089-0.257
							c1.139-0.554,1.531-2.224,1.629-2.761c-1.934-0.49-3.269-1.417-3.971-2.76c-1.143-2.19-0.188-4.661-0.146-4.765l0.249-0.109
							l0.108,0.25c-0.009,0.024-0.931,2.417,0.132,4.448c0.668,1.279,1.978,2.155,3.891,2.604l0.169,0.04l-0.021,0.171
							c-0.013,0.102-0.327,2.476-1.87,3.229L353.237,2913.04z"/>
					</g>
				</g>
			</g>
			<g>
				<g>
					<g>
						<path fill="#8B2C7B" d="M357.667,2931.894l-1.445-5.843c0,0-10.022,1.863-17.026-0.457
							C339.195,2925.594,349.376,2931.468,357.667,2931.894z"/>
					</g>
				</g>
			</g>
			<g>
				<g>
					<g>
						<path fill="#4C232E" d="M346.522,2906.099c0.142,0.575-0.209,1.156-0.784,1.298c-0.574,0.142-1.155-0.209-1.297-0.783
							c-0.142-0.574,0.209-1.156,0.784-1.298C345.799,2905.175,346.38,2905.525,346.522,2906.099z"/>
					</g>
				</g>
			</g>
			<g>
				<g>
					<g>
						<path fill="#4C232E" d="M357.129,2903.835c0.142,0.575-0.208,1.156-0.783,1.299c-0.575,0.141-1.156-0.208-1.298-0.784
							c-0.142-0.574,0.209-1.156,0.783-1.297C356.406,2902.911,356.987,2903.261,357.129,2903.835z"/>
					</g>
				</g>
			</g>
			<g>
				<g>
					<g>
						<path fill="#E6E7E8" d="M345.011,2914.555c0.121,0,7.521,1.24,7.521,1.24s-1.509,2.868-4.26,2.415
							C345.52,2917.758,345.011,2914.555,345.011,2914.555z"/>
					</g>
				</g>
			</g>
			<g>
				<g>
					<g>
						<path fill="#4C232E" d="M341.325,2903.417c0.119,0.023,0.248-0.011,0.341-0.103c0.023-0.023,2.317-2.249,5.206-1.98
							c0.21,0.02,0.396-0.135,0.415-0.344c0.02-0.21-0.134-0.397-0.345-0.417c-3.25-0.303-5.71,2.096-5.814,2.198
							c-0.15,0.148-0.15,0.389-0.002,0.539L341.325,2903.417z"/>
					</g>
				</g>
			</g>
			<g>
				<g>
					<g>
						<path fill="#4C232E" d="M357.628,2900.907c0.121-0.014,0.233-0.084,0.294-0.2c0.1-0.186,0.029-0.418-0.157-0.517
							c-0.128-0.069-3.172-1.661-6.199-0.441c-0.196,0.079-0.291,0.301-0.212,0.497c0.079,0.196,0.302,0.291,0.497,0.212
							c2.7-1.089,5.525,0.391,5.554,0.406L357.628,2900.907z"/>
					</g>
				</g>
			</g>
			<g>
				<g>
					<g>
						<polygon fill="#F39E76" points="346.358,2889.895 340.135,2886.375 345.257,2890.989 						"/>
					</g>
				</g>
			</g>
			<g>
				<g>
					<path fill="#2D2C71" d="M354.269,2882.168c-0.351-2.434-2.625-5.65-5.053-5.261c0,0-25.916,0.521-31.658,10.728
						c-6.4,11.376-3.566,27.854,4.978,36.753c4.922,5.127,11.983,5.387,11.983,5.387l-4.157-28.254
						c0.889,0.225,20.68-1.955,23.457-9.975C354.667,2889.094,354.79,2885.781,354.269,2882.168z"/>
				</g>
			</g>
			<g>
				<g>
					<g>
						<path fill="#A93C96" d="M335.752,2911.676c0.797,3.221-1.169,6.479-4.39,7.276c-3.222,0.796-6.48-1.169-7.276-4.391
							c-0.797-3.221,1.168-6.479,4.39-7.276C331.698,2906.489,334.956,2908.454,335.752,2911.676z"/>
					</g>
				</g>
			</g>
			<g>
				<g>
					<g>
						<path fill="#ED7163" d="M330.378,2916.825c-1.224,0.303-2.27-0.415-2.766-1.268c-0.587-1.008-0.484-2.156,0.265-2.924
							c1.065-1.092,2.323-0.918,3.042-0.682c-0.404-0.559-0.9-0.918-1.476-1.072c-1.298-0.344-2.595,0.463-2.608,0.47
							c-0.091,0.057-0.209,0.03-0.265-0.059c-0.057-0.09-0.031-0.208,0.059-0.265c0.059-0.038,1.453-0.906,2.913-0.518
							c0.843,0.224,1.525,0.819,2.03,1.77l0.323,0.609l-0.592-0.354c-0.072-0.042-1.777-1.038-3.15,0.37
							c-0.759,0.777-0.586,1.812-0.208,2.461c0.397,0.682,1.254,1.37,2.37,1.08c0.101-0.028,0.208,0.034,0.235,0.137
							c0.027,0.104-0.035,0.208-0.137,0.236L330.378,2916.825z"/>
					</g>
				</g>
			</g>
		</g>
		<g>
			<g>
				<g>
					<polygon fill="#A93C96" points="316.829,3180.177 321.395,3293.034 351.19,3293.034 364.009,3180.177 					"/>
				</g>
			</g>
		</g>
		<g>
			<g>
				<g>
					<path fill="#A93C96" d="M267.542,3140.8l-13.678,12.176l-74.388,22.408l-9.171,4.64l1.464,18.575l9.806,7.507
						c0,0,96.688-13.906,101.839-17.887s15.036-16.511,15.036-16.511s17.327-25.99,15.922-30.907
						c-1.405-4.917-15.688-14.777-16.858-14.764C296.342,3126.049,267.542,3140.8,267.542,3140.8z"/>
				</g>
			</g>
		</g>
		<g>
			<g>
				<g>
					<g>
						<path fill="#A93C96" d="M330.54,3306.554l41.323-0.653c0.373-0.061,0.677-0.126,0.899-0.198
							c3.872-1.254,2.232-5.67,2.232-5.67l-23.088-13.301l-10.67,4.828c0,0-17.494,2.922-19.997-2.041l0.352,12.974
							C321.591,3302.493,320.317,3306.652,330.54,3306.554z"/>
					</g>
				</g>
			</g>
		</g>
		<g>
			<g>
				<g>
					<path fill="#F07162" d="M261.073,3166.977c-0.327,0-0.643-0.177-0.805-0.487l-6.642-12.733
						c-0.232-0.444-0.06-0.991,0.385-1.223c0.444-0.232,0.991-0.06,1.223,0.384l6.642,12.733c0.232,0.444,0.059,0.991-0.385,1.223
						C261.358,3166.944,261.214,3166.977,261.073,3166.977z"/>
				</g>
			</g>
		</g>
		<g>
			<g>
				<path fill="#3A3C97" d="M304.488,3028.993c0,0-17.363,63.168-71.557,112.503c0,0,25.256,42.18,87.801,56.81
					c52.729,12.333,64.689,7.799,64.689,7.799l-2.607-163.949L304.488,3028.993z"/>
			</g>
		</g>
		<g>
			<g>
				<path fill="#A93C96" d="M361.725,2938.258l33.977,32.766l-8.056,34.972l-46.731-35.8l-10.121-22.099
					c0,0,13.215-11.876,14.027-10.856C345.632,2938.26,353.67,2932.854,361.725,2938.258z"/>
			</g>
		</g>
		<g>
			<g>
				<path fill="#3A3C97" d="M335.764,2949.514c1.48-4.582,3.976-7.685,6.382-9.746c2.828-2.423,6.451-3.717,10.175-3.778
					c0.023,0,0.047-0.001,0.07-0.001c-15.891-2.106-23.152,15.771-23.152,15.771l-34.77,108.65
					c36.292,28.298,86.867,22.475,86.867,22.475c0.683-5.887,1.964-75.47,2.038-80.056
					C337.734,2966.845,332.24,2960.427,335.764,2949.514z"/>
			</g>
		</g>
		<g>
			<g>
				<g>
					<path fill="#A93C96" d="M359.466,2980.54c0,0,22.88,23.403,30.618,26.845c7.738,3.442,77.545-18.914,77.545-18.914
						l-29.996-15.214l-35.116,3.298l-23.852-21.895L359.466,2980.54z"/>
				</g>
			</g>
		</g>
		<g>
			<g>
				<path fill="#010101" d="M313.199,3003.799l-1.113-0.356l15.461-48.312c3.539-11.06,7.244-13.978,12.093-16.893
					c6.091-3.663,14.444-4.039,18.691-2.285c6.105,2.521,23.777,21.083,24.526,21.872c0.223,0.234,0.213,0.604-0.021,0.826
					c-0.234,0.224-0.604,0.213-0.826-0.021c-0.182-0.191-18.248-19.169-24.126-21.597c-3.473-1.433-11.537-1.464-17.642,2.207
					c-4.628,2.782-8.168,5.576-11.583,16.246L313.199,3003.799z"/>
			</g>
		</g>
		<g>
			<g>
				<path fill="#010101" d="M371.009,2993.594c-0.136,0-0.273-0.047-0.384-0.144l-28.927-25.198
					c-0.243-0.212-0.269-0.581-0.056-0.825c0.212-0.243,0.582-0.268,0.825-0.056l28.927,25.198c0.243,0.212,0.269,0.581,0.057,0.824
					C371.334,2993.526,371.171,2993.594,371.009,2993.594z"/>
			</g>
		</g>
		<g>
			<g>
				<path fill="#010101" d="M347.7,2973.29h-7.587c-0.323,0-0.584-0.261-0.584-0.584s0.261-0.584,0.584-0.584h7.587
					c0.323,0,0.584,0.261,0.584,0.584S348.023,2973.29,347.7,2973.29z"/>
			</g>
		</g>
		<g>
			<g>
				<path fill="#010101" d="M377.52,3206.817c-21.848,0-42.59-2.947-61.772-8.783c-17.194-5.232-33.175-12.784-47.499-22.447
					c-24.405-16.462-35.696-33.601-35.807-33.772l-0.261-0.403l0.344-0.334c0.276-0.269,27.764-27.086,39.269-45.954
					c0.168-0.276,0.528-0.364,0.803-0.195c0.276,0.168,0.363,0.527,0.195,0.803c-10.871,17.828-35.846,42.637-39.102,45.84
					c1.832,2.646,13.087,18.133,35.263,33.08c22.357,15.069,60.701,32.64,116.45,30.869c0.312-0.034,0.593,0.242,0.603,0.565
					c0.011,0.323-0.243,0.592-0.565,0.603C382.786,3206.775,380.143,3206.817,377.52,3206.817z"/>
			</g>
		</g>
		<g>
			<g>
				<path fill="#010101" d="M359.066,3193.062c-0.205,0-0.404-0.108-0.511-0.3c-0.157-0.282-0.055-0.638,0.227-0.795l17.968-10
					c0.284-0.158,0.637-0.055,0.795,0.227c0.157,0.282,0.055,0.638-0.227,0.795l-17.968,10
					C359.26,3193.038,359.162,3193.062,359.066,3193.062z"/>
			</g>
		</g>
		<g>
			<g>
				<path fill="#010101" d="M368.05,3195.163c-0.19,0-0.377-0.093-0.489-0.263c-0.177-0.27-0.102-0.632,0.167-0.81l14.384-9.456
					c0.271-0.177,0.632-0.102,0.81,0.167c0.177,0.27,0.102,0.632-0.167,0.81l-14.384,9.456
					C368.272,3195.132,368.161,3195.163,368.05,3195.163z"/>
			</g>
		</g>
		<g>
			<g>
				<g>
					<g>
						<g>
							<g>
								<g>
									<g>
										<g>
											<path fill="#A93C96" d="M483.083,2971.744c2.949-4.281-1.155-3.849-1.155-3.849c1.347-2.46,0.684-3.285-0.102-3.545
												c-0.575-0.19-1.208-0.069-1.703,0.281c-1.571,1.111-6.71,4.536-9.661,6.398c-3.731,1.357-5.383,0.067-5.383,0.067
												l-34.176,3.172l16.341,17.215c0,0,23.606-3.873,25.81-4.442c2.205-0.568,8.97-4.938,10.717-7.441
												c3.17-4.543,0.576-4.085,0.576-4.085C487.2,2970.49,483.083,2971.744,483.083,2971.744z"/>
										</g>
									</g>
								</g>
							</g>
						</g>
					</g>
				</g>
			</g>
			<path fill="#A93C96" d="M463.872,2976.524c-0.427-1.351-18.16-3.15-18.16-3.15c8.307-7.019,18.729-8.797,20.436-8.797
				s1.614,1.892,0.061,4.288c-1.554,2.396-1.056,5.597-1.056,5.597L463.872,2976.524z"/>
			<g>
				<g>
					<g>
						<g>
							<g>
								<g>
									<g>
										<g>
											<g>
												<path fill="#F07162" d="M478.025,2971.976c-0.109,0.037-0.235,0.001-0.307-0.097c-0.09-0.121-0.064-0.293,0.057-0.383
													c1.704-1.26,3.925-3.758,3.947-3.783c0.1-0.113,0.273-0.123,0.387-0.023c0.113,0.101,0.124,0.274,0.023,0.387
													c-0.093,0.104-2.281,2.566-4.032,3.86C478.077,2971.954,478.052,2971.967,478.025,2971.976z"/>
											</g>
										</g>
									</g>
								</g>
							</g>
						</g>
					</g>
				</g>
			</g>
			<g>
				<g>
					<g>
						<g>
							<g>
								<g>
									<g>
										<g>
											<g>
												<path fill="#F07162" d="M479.128,2975.263c-0.123,0.041-0.261-0.01-0.326-0.127c-0.073-0.132-0.026-0.299,0.106-0.372
													c2.254-1.254,3.953-3.181,3.969-3.2c0.1-0.114,0.273-0.125,0.386-0.026c0.114,0.1,0.125,0.273,0.026,0.386
													c-0.072,0.082-1.776,2.017-4.116,3.319C479.159,2975.25,479.143,2975.257,479.128,2975.263z"/>
											</g>
										</g>
									</g>
								</g>
							</g>
						</g>
					</g>
				</g>
			</g>
			<g>
				<g>
					<g>
						<g>
							<g>
								<g>
									<g>
										<g>
											<g>
												<path fill="#F07162" d="M480.961,2978.817c-0.12,0.04-0.255-0.007-0.322-0.12c-0.077-0.13-0.034-0.298,0.095-0.375
													c1.914-1.138,3.386-2.958,3.401-2.977c0.094-0.118,0.267-0.136,0.385-0.042c0.118,0.094,0.137,0.267,0.042,0.385
													c-0.062,0.078-1.549,1.916-3.548,3.105C480.997,2978.803,480.98,2978.811,480.961,2978.817z"/>
											</g>
										</g>
									</g>
								</g>
							</g>
						</g>
					</g>
				</g>
			</g>
		</g>
		<g>
			<g>
				<g>
					<g>
						<path fill="#A93C96" d="M162.237,3184.301l-0.274,41.327c0.052,0.374,0.111,0.68,0.178,0.903
							c1.167,3.899,3.646,2.645,3.646,2.645l15.788-23.071l-4.587-10.775c0,0-2.529-17.555,2.488-19.946l-12.979,0.062
							C166.497,3175.445,162.368,3174.078,162.237,3184.301z"/>
					</g>
				</g>
			</g>
		</g>
	</g>
</g>
<g id="stars">
	<g>
		<g>
			<path fill="#FFFFFF" d="M334.667,754.177c3.217,0,3.223-5,0-5C331.45,749.177,331.445,754.177,334.667,754.177L334.667,754.177z"
				/>
		</g>
	</g>
	<g>
		<g>
			<path fill="#FFFFFF" d="M400.45,308.314c3.217,0,3.223-5,0-5C397.233,303.314,397.228,308.314,400.45,308.314L400.45,308.314z"/>
		</g>
	</g>
	<g>
		<g>
			<path fill="#FFFFFF" d="M963.26,2436.798c5.148,0,5.156-8,0-8C958.112,2428.798,958.104,2436.798,963.26,2436.798
				L963.26,2436.798z"/>
		</g>
	</g>
	<g>
		<g>
			<path fill="#FFFFFF" d="M1379.886,2246.758c5.148,0,5.156-8,0-8C1374.738,2238.758,1374.73,2246.758,1379.886,2246.758
				L1379.886,2246.758z"/>
		</g>
	</g>
	<g>
		<g>
			<path fill="#FFFFFF" d="M1847.676,1048.046c5.148,0,5.156-8,0-8C1842.528,1040.046,1842.52,1048.046,1847.676,1048.046
				L1847.676,1048.046z"/>
		</g>
	</g>
	<g>
		<g>
			<path fill="#FFFFFF" d="M1336.03,214.794c5.148,0,5.156-8,0-8C1330.883,206.794,1330.874,214.794,1336.03,214.794
				L1336.03,214.794z"/>
		</g>
	</g>
	<g>
		<g>
			<path fill="#FFFFFF" d="M1643.018,302.505c5.148,0,5.156-8,0-8C1637.87,294.505,1637.862,302.505,1643.018,302.505
				L1643.018,302.505z"/>
		</g>
	</g>
	<g>
		<g>
			<path fill="#FFFFFF" d="M1606.472,455.999c5.148,0,5.156-8,0-8C1601.324,447.999,1601.315,455.999,1606.472,455.999
				L1606.472,455.999z"/>
		</g>
	</g>
	<g>
		<g>
			<path fill="#FFFFFF" d="M1913.459,1676.639c5.148,0,5.156-8,0-8C1908.311,1668.639,1908.303,1676.639,1913.459,1676.639
				L1913.459,1676.639z"/>
		</g>
	</g>
	<g>
		<g>
			<path fill="#FFFFFF" d="M1913.459,2275.995c5.148,0,5.156-8,0-8C1908.311,2267.995,1908.303,2275.995,1913.459,2275.995
				L1913.459,2275.995z"/>
		</g>
	</g>
	<g>
		<g>
			<path fill="#FFFFFF" d="M773.22,551.019c5.148,0,5.156-8,0-8C768.073,543.019,768.064,551.019,773.22,551.019L773.22,551.019z"/>
		</g>
	</g>
	<g>
		<g>
			<path fill="#FFFFFF" d="M1518.761,2539.127c5.148,0,5.156-8,0-8C1513.613,2531.127,1513.605,2539.127,1518.761,2539.127
				L1518.761,2539.127z"/>
		</g>
	</g>
	<g>
		<g>
			<path fill="#FFFFFF" d="M2322.775,119.775c5.148,0,5.156-8,0-8C2317.628,111.775,2317.619,119.775,2322.775,119.775
				L2322.775,119.775z"/>
		</g>
	</g>
	<g>
		<g>
			<path fill="#FFFFFF" d="M2125.426,258.65c5.148,0,5.156-8,0-8C2120.279,250.65,2120.27,258.65,2125.426,258.65L2125.426,258.65z"
				/>
		</g>
	</g>
	<g>
		<g>
			<path fill="#FFFFFF" d="M2344.703,580.255c5.148,0,5.156-8,0-8C2339.555,572.255,2339.547,580.255,2344.703,580.255
				L2344.703,580.255z"/>
		</g>
	</g>
	<g>
		<g>
			<path fill="#FFFFFF" d="M1628.399,1376.961c5.148,0,5.156-8,0-8C1623.252,1368.961,1623.243,1376.961,1628.399,1376.961
				L1628.399,1376.961z"/>
		</g>
	</g>
	<g>
		<g>
			<path fill="#FFFFFF" d="M2352.012,2590.291c5.147,0,5.156-8,0-8C2346.865,2582.291,2346.856,2590.291,2352.012,2590.291
				L2352.012,2590.291z"/>
		</g>
	</g>
	<g>
		<g>
			<path fill="#FFFFFF" d="M775.156,1564.061c3.217,0,3.223-5,0-5C771.939,1559.061,771.934,1564.061,775.156,1564.061
				L775.156,1564.061z"/>
		</g>
	</g>
	<g>
		<g>
			<path fill="#FFFFFF" d="M1063.547,1487.722c3.217,0,3.223-5,0-5C1060.33,1482.722,1060.324,1487.722,1063.547,1487.722
				L1063.547,1487.722z"/>
		</g>
	</g>
	<g>
		<g>
			<path fill="#FFFFFF" d="M249.267,1692.292c4.504,0,4.512-7,0-7C244.763,1685.292,244.756,1692.292,249.267,1692.292
				L249.267,1692.292z"/>
		</g>
	</g>
	<g>
		<g>
			<path fill="#FFFFFF" d="M469.802,1946.754c4.504,0,4.512-7,0-7C465.297,1939.754,465.29,1946.754,469.802,1946.754
				L469.802,1946.754z"/>
		</g>
	</g>
	<g>
		<g>
			<path fill="#FFFFFF" d="M1029.619,1989.165c4.504,0,4.512-7,0-7C1025.115,1982.165,1025.107,1989.165,1029.619,1989.165
				L1029.619,1989.165z"/>
		</g>
	</g>
	<g>
		<g>
			<path fill="#FFFFFF" d="M62.662,767.745c4.504,0,4.512-7,0-7C58.158,760.745,58.15,767.745,62.662,767.745L62.662,767.745z"/>
		</g>
	</g>
</g>
</svg>
