<?xml version="1.0" encoding="utf-8"?>
<!-- Generator: Adobe Illustrator 27.0.0, SVG Export Plug-In . SVG Version: 6.00 Build 0)  -->
<svg version="1.1" xmlns="http://www.w3.org/2000/svg" xmlns:xlink="http://www.w3.org/1999/xlink" x="0px" y="0px"
	 viewBox="0 0 2480 3508" enable-background="new 0 0 2480 3508" xml:space="preserve">
<g id="Layer_1">
</g>
<g id="background">
	<linearGradient id="SVGID_1_" gradientUnits="userSpaceOnUse" x1="-29.5117" y1="3997.1973" x2="67.4324" y2="-373.2129">
		<stop  offset="0" style="stop-color:#7F3F98"/>
		<stop  offset="0.0265" style="stop-color:#793C91"/>
		<stop  offset="0.2137" style="stop-color:#593077"/>
		<stop  offset="0.4043" style="stop-color:#412765"/>
		<stop  offset="0.5973" style="stop-color:#2F2159"/>
		<stop  offset="0.794" style="stop-color:#241D52"/>
		<stop  offset="1" style="stop-color:#211C4F"/>
	</linearGradient>
	<rect x="-2500" y="-113" fill="url(#SVGID_1_)" width="5043" height="3621"/>
</g>
<g id="typo">
	<text transform="matrix(0 -1 1 0 2445.7812 3035.7852)" fill="#E6E7E8" font-family="'LEMONMILK-Medium'" font-size="436.2936px">iste</text>
</g>
<g id="space">
	<path id="TELE_LIGHT_00000124854312583806014530000003464883037474825892_" display="none" fill="#2C2B3F" d="M-1783.254,2688.679
		c3.087-0.987,5.17-3.865,5.129-7.106c-0.517-41.301,3.95-306.684,200.625-391.5C-1364,2198-1180.786,2136-1106.893,1955
		S-886,1387-1061,1047S-1634.413,58.82-1881.707-59.09c-245.398-117.006,1292.832-1.794,1316.432-0.021
		c0.184,0.014,0.367,0.021,0.551,0.021h875.657h2285.085c4.073,0,7.376,3.302,7.376,7.376v2166.35c0,4.862-4.622,8.396-9.313,7.117
		c-86.126-23.498-754.413-194.04-1367.582-6.606c-458.079,115.95-626.271,332.975-634.979,348.137
		c-0.278,0.484-0.561,0.969-0.837,1.46c-9.803,17.463-167.177,371.203-672.684,311.033
		c-518.603-61.729-1185.37-194.29-1573.305-23.028c-0.592,0.261-1.153,0.604-1.658,1.008c-26.357,21.105-39.793,32.426-46.34,38.121
		c-3.156,2.746-7.958,2.311-10.58-0.949l-72.873-90.601C-1790.002,2696.292-1788.187,2690.256-1783.254,2688.679L-1783.254,2688.679
		z"/>
	<g id="TELE_LIGHT_00000085959690531172860040000015304658825262690739_" display="none">
		<g display="inline">
			<g>
				<defs>
					<path id="SVGID_00000114057221312892725900000004674069816447915674_" d="M-1783.254,2688.679
						c3.087-0.987,5.17-3.865,5.129-7.106c-0.517-41.301,3.95-306.684,200.625-391.5C-1364,2198-1180.786,2136-1106.893,1955
						S-886,1387-1061,1047S-1634.413,58.82-1881.707-59.09c-245.398-117.006,1292.832-1.794,1316.432-0.021
						c0.184,0.014,0.367,0.021,0.551,0.021h875.657h2285.085c4.073,0,7.376,3.302,7.376,7.376v2166.35
						c0,4.862-4.622,8.396-9.313,7.117c-86.126-23.498-754.413-194.04-1367.582-6.606
						c-458.079,115.95-626.271,332.975-634.979,348.137c-0.278,0.484-0.561,0.969-0.837,1.46
						c-9.803,17.463-167.177,371.203-672.684,311.033c-518.603-61.729-1185.37-194.29-1573.305-23.028
						c-0.592,0.261-1.153,0.604-1.658,1.008c-26.357,21.105-39.793,32.426-46.34,38.121c-3.156,2.746-7.958,2.311-10.58-0.949
						l-72.873-90.601C-1790.002,2696.292-1788.187,2690.256-1783.254,2688.679L-1783.254,2688.679z"/>
				</defs>
				<clipPath id="SVGID_00000027585559231654665590000008981660086073535130_">
					<use xlink:href="#SVGID_00000114057221312892725900000004674069816447915674_"  overflow="visible"/>
				</clipPath>
				<g clip-path="url(#SVGID_00000027585559231654665590000008981660086073535130_)">
					<g>
						<defs>
							
								<rect id="SVGID_00000127735723184564960200000014274874254855052951_" x="-1913.255" y="-116.494" width="4521.65" height="2915.179"/>
						</defs>
						<clipPath id="SVGID_00000085954910721743961360000012533733261073730719_">
							<use xlink:href="#SVGID_00000127735723184564960200000014274874254855052951_"  overflow="visible"/>
						</clipPath>
						<g clip-path="url(#SVGID_00000085954910721743961360000012533733261073730719_)">
							<defs>
								
									<rect id="SVGID_00000036245036129445846810000001038222375579034507_" x="-1913.255" y="-116.494" width="4521.65" height="2915.179"/>
							</defs>
							<clipPath id="SVGID_00000086691306195320598060000004935185651928046502_">
								<use xlink:href="#SVGID_00000036245036129445846810000001038222375579034507_"  overflow="visible"/>
							</clipPath>
							<g clip-path="url(#SVGID_00000086691306195320598060000004935185651928046502_)">
								
									<image overflow="visible" width="9421" height="6074" xlink:href="E4D44C6C8AD5A3B5.webp"  transform="matrix(0.48 0 0 0.48 -1913.4399 -116.8)">
								</image>
							</g>
						</g>
					</g>
				</g>
			</g>
		</g>
		<defs>
			
				<filter id="Adobe_OpacityMaskFilter" filterUnits="userSpaceOnUse" x="-1913.255" y="-116.495" width="4521.65" height="2915.179">
				
					<feColorMatrix  type="matrix" values="-1 0 0 0 1  0 -1 0 0 1  0 0 -1 0 1  0 0 0 1 0" color-interpolation-filters="sRGB" result="source"/>
			</filter>
		</defs>
		
			<mask maskUnits="userSpaceOnUse" x="-1913.255" y="-116.495" width="4521.65" height="2915.179" id="SVGID_00000113315828565285792680000007138102739283717294_" display="inline">
			<g filter="url(#Adobe_OpacityMaskFilter)">
				
					<image overflow="visible" width="18816" height="12123" xlink:href="E4D44C6C8AD5A3B7.webp"  transform="matrix(0.24 0 0 0.24 -1910.3199 -113.68)">
				</image>
			</g>
		</mask>
		<g display="inline" opacity="0.77" mask="url(#SVGID_00000113315828565285792680000007138102739283717294_)">
			<g>
				<defs>
					<path id="SVGID_00000019673845429422268240000013572419963997644712_" d="M-1783.254,2688.679
						c3.087-0.987,5.17-3.865,5.129-7.106c-0.517-41.301,3.95-306.684,200.625-391.5C-1364,2198-1180.786,2136-1106.893,1955
						S-886,1387-1061,1047S-1634.413,58.82-1881.707-59.09c-245.398-117.006,1292.832-1.794,1316.432-0.021
						c0.184,0.014,0.367,0.021,0.551,0.021h875.657h2285.085c4.073,0,7.376,3.302,7.376,7.376v2166.35
						c0,4.862-4.622,8.396-9.313,7.117c-86.126-23.498-754.413-194.04-1367.582-6.606
						c-458.079,115.95-626.271,332.975-634.979,348.137c-0.278,0.484-0.561,0.969-0.837,1.46
						c-9.803,17.463-167.177,371.203-672.684,311.033c-518.603-61.729-1185.37-194.29-1573.305-23.028
						c-0.592,0.261-1.153,0.604-1.658,1.008c-26.357,21.105-39.793,32.426-46.34,38.121c-3.156,2.746-7.958,2.311-10.58-0.949
						l-72.873-90.601C-1790.002,2696.292-1788.187,2690.256-1783.254,2688.679L-1783.254,2688.679z"/>
				</defs>
				<clipPath id="SVGID_00000039818520449485102080000015245094239448701579_">
					<use xlink:href="#SVGID_00000019673845429422268240000013572419963997644712_"  overflow="visible"/>
				</clipPath>
				
					<rect x="-1913.255" y="-116.495" clip-path="url(#SVGID_00000039818520449485102080000015245094239448701579_)" width="4521.65" height="2915.179"/>
			</g>
		</g>
	</g>
	
		<path id="TELE_LIGHT_00000039120469869295198880000001500679805010604195_" display="none" fill="none" stroke="#2B296B" stroke-width="60" stroke-miterlimit="10" d="
		M-1661,2702l-42-67c2.919-0.951-23-21-14-25c-0.489-39.789,5.032-214.289,191-296c201.877-88.701,403.13-172.628,473-347
		s226-538,59-911c-141.441-286.711-547.809-982.288-793.93-1089c-236.68-102.618,1222.45-1.728,1244.765-0.02
		c0.174,0.013,0.347,0.02,0.521,0.02h827.986h2160.684c3.852,0,6.974,3.181,6.974,7.106v2087.024c0,4.684-43.565-27.896-48-29.129
		c-81.437-22.637-674.148-150.949-1253.936,29.621c-433.141,111.705-592.176,320.782-600.411,335.389
		c-0.263,0.466-0.408,1.025-0.791,1.407C451,2497,391.787,2756.027-86.2,2698.06c-490.37-59.468-1120.838-187.175-1487.653-22.185
		c-0.56,0.252-1.09,0.582-1.568,0.971c-24.922,20.333-112.388,7.667-118.578,13.154"/>
	<g id="TELE_LIGHT" display="none">
		
			<image display="inline" overflow="visible" opacity="0.65" width="18970" height="12420" xlink:href="E4D44C6C8AD5A3B5.webp"  transform="matrix(0.24 0 0 0.24 -1922.6801 -154.6)">
		</image>
		<g display="inline">
			<path fill="none" stroke="#32327B" stroke-width="60" stroke-miterlimit="10" d="M-1736.27,2659.26
				c3.021-0.965-9.683-4.089-9.723-7.26c-0.506-40.41,18.607-299.759,211.051-382.745
				c208.906-90.086,388.179-150.749,460.482-327.843c72.303-177.094,216.14-555.744,44.906-888.408
				S-1590.631,86.145-1832.604-29.221c-240.118-114.482,1265.017-1.755,1288.109-0.02c0.18,0.014,0.359,0.02,0.539,0.02h856.817
				h2235.921c3.986,0,7.217,3.231,7.217,7.216v2119.607c0,4.757-4.523,8.215-9.112,6.963
				c-84.273-22.991-738.182-189.853-1338.158-6.463c-448.223,113.448-612.796,325.79-621.318,340.625
				c-0.272,0.474-0.549,0.948-0.819,1.429c-9.592,17.086-163.58,363.193-658.211,304.322
				c-507.445-60.397-1159.867-190.097-1539.455-22.531c-0.579,0.256-1.128,0.591-1.622,0.987
				c-25.79,20.65-38.937,31.727-45.343,37.299c-3.088,2.686-7.787,2.261-10.352-0.928L-1744.993,2627
				c-3.176-3.948-5.827,104.542-1,103L-1736.27,2659.26z"/>
		</g>
	</g>
</g>
<g id="hills">
	<g id="clouds">
		
			<linearGradient id="SVGID_00000182489241032689370260000005373657945405628070_" gradientUnits="userSpaceOnUse" x1="937.5572" y1="3185.79" x2="946.0004" y2="2805.1531">
			<stop  offset="0" style="stop-color:#2D2B71;stop-opacity:0"/>
			<stop  offset="0.0491" style="stop-color:#40397A;stop-opacity:0.0491"/>
			<stop  offset="0.151" style="stop-color:#64568C;stop-opacity:0.151"/>
			<stop  offset="0.2574" style="stop-color:#8373A0;stop-opacity:0.2574"/>
			<stop  offset="0.3662" style="stop-color:#A18EB3;stop-opacity:0.3662"/>
			<stop  offset="0.4779" style="stop-color:#BCA9C6;stop-opacity:0.4779"/>
			<stop  offset="0.5934" style="stop-color:#D4C1D6;stop-opacity:0.5934"/>
			<stop  offset="0.7144" style="stop-color:#E6D4E3;stop-opacity:0.7144"/>
			<stop  offset="0.8445" style="stop-color:#F3E0EC;stop-opacity:0.8445"/>
			<stop  offset="1" style="stop-color:#F7E4EF"/>
		</linearGradient>
		<path opacity="0.7" fill="url(#SVGID_00000182489241032689370260000005373657945405628070_)" d="M942,2823
			c-104.382,0-189,72.754-189,162.5c0,36.561,14.046,70.299,37.747,97.449c1.016-0.221,2.053-0.34,3.096-0.34
			c3.044-0.001,6.09,0.003,9.131-0.126c0.401-0.017,1.806-0.147,2.716-0.216c0.633-0.364,0.575-0.302,0.137-0.01
			c0.012-0.001,0.025-0.002,0.037-0.003c1.7-0.714,3.514-1.155,5.619-1.25c4.179-0.187,8.105,1.851,11.096,4.596
			c2.887,2.65,4.596,7.247,4.596,11.096c0,3.516-1.651,8.819-4.596,11.096c-0.883,0.683-1.737,1.276-2.579,1.807
			C852.924,3133.551,895.496,3148,942,3148c104.382,0,189-72.754,189-162.5S1046.382,2823,942,2823z"/>
		
			<linearGradient id="SVGID_00000063613274644852509590000016840371338249968814_" gradientUnits="userSpaceOnUse" x1="1346.2697" y1="2865.4666" x2="1348.6078" y2="2760.0564">
			<stop  offset="0" style="stop-color:#2D2B71;stop-opacity:0"/>
			<stop  offset="0.0605" style="stop-color:#3A3577;stop-opacity:0.0605"/>
			<stop  offset="0.3275" style="stop-color:#726395;stop-opacity:0.3275"/>
			<stop  offset="0.5643" style="stop-color:#A28FB4;stop-opacity:0.5643"/>
			<stop  offset="0.7621" style="stop-color:#CBB9D0;stop-opacity:0.7621"/>
			<stop  offset="0.9133" style="stop-color:#EAD7E5;stop-opacity:0.9133"/>
			<stop  offset="1" style="stop-color:#F7E4EF"/>
		</linearGradient>
		<path opacity="0.51" fill="url(#SVGID_00000063613274644852509590000016840371338249968814_)" d="M1307.099,2840.201h80.801
			c8.761-7.985,14.099-18.578,14.099-30.201c0-24.853-24.4-45-54.5-45s-54.5,20.147-54.5,45
			C1293,2821.623,1298.338,2832.216,1307.099,2840.201z"/>
		
			<linearGradient id="SVGID_00000133528045990199152770000002752954957046886273_" gradientUnits="userSpaceOnUse" x1="1392.0841" y1="2849.5955" x2="1394.4224" y2="2744.1853">
			<stop  offset="0" style="stop-color:#2D2B71;stop-opacity:0"/>
			<stop  offset="0.1217" style="stop-color:#3D3778;stop-opacity:0.1217"/>
			<stop  offset="0.3789" style="stop-color:#67598E;stop-opacity:0.3789"/>
			<stop  offset="0.7467" style="stop-color:#AF9CBD;stop-opacity:0.7467"/>
			<stop  offset="1" style="stop-color:#F7E4EF"/>
		</linearGradient>
		<path opacity="0.51" fill="url(#SVGID_00000133528045990199152770000002752954957046886273_)" d="M1363,2767
			c4.163,1.023,5.789,3.784,8.861,6.531c11.275,2.2,19.488,11.675,21.129,23.069c4.103,4.704,6.639,10.863,6.937,17.512
			c0.185,4.129-0.793,8.08-2.61,11.611h28.833c9.795-8.136,15.85-19.344,15.85-31.722c0-24.853-24.4-45-54.5-45
			c-17.041,0-32.25,6.461-42.244,16.575c0.992-0.011,2.007,0.059,3.039,0.224L1363,2767z"/>
		
			<linearGradient id="SVGID_00000073717632735682466090000016148351428097652097_" gradientUnits="userSpaceOnUse" x1="1014.3674" y1="3098.1428" x2="1018.4203" y2="2915.4304">
			<stop  offset="0" style="stop-color:#2D2B71;stop-opacity:0"/>
			<stop  offset="0.0491" style="stop-color:#40397A;stop-opacity:0.0491"/>
			<stop  offset="0.151" style="stop-color:#64568C;stop-opacity:0.151"/>
			<stop  offset="0.2574" style="stop-color:#8373A0;stop-opacity:0.2574"/>
			<stop  offset="0.3662" style="stop-color:#A18EB3;stop-opacity:0.3662"/>
			<stop  offset="0.4779" style="stop-color:#BCA9C6;stop-opacity:0.4779"/>
			<stop  offset="0.5934" style="stop-color:#D4C1D6;stop-opacity:0.5934"/>
			<stop  offset="0.7144" style="stop-color:#E6D4E3;stop-opacity:0.7144"/>
			<stop  offset="0.8445" style="stop-color:#F3E0EC;stop-opacity:0.8445"/>
			<stop  offset="1" style="stop-color:#F7E4EF"/>
		</linearGradient>
		
			<ellipse opacity="0.51" fill="url(#SVGID_00000073717632735682466090000016148351428097652097_)" cx="1016.5" cy="3002" rx="95.5" ry="78"/>
	</g>
	
		<linearGradient id="SVGID_00000035501298597266130040000004546578314258293942_" gradientUnits="userSpaceOnUse" x1="-1742.7955" y1="3149.8799" x2="-1742.7955" y2="3477.2334" gradientTransform="matrix(-1 0 0 1 -2021.7278 0)">
		<stop  offset="0" style="stop-color:#6B195D;stop-opacity:0.6"/>
		<stop  offset="1" style="stop-color:#3F4097"/>
	</linearGradient>
	<path fill="url(#SVGID_00000035501298597266130040000004546578314258293942_)" d="M2789.999,3206c0,0-237.171-160.759-751.999-213
		c-269.379-27.334-782.131,30.442-1017.135,37.475c-227.729,117.616-332.729,151.616-332.729,151.616s-236,94-366,113
		c-127.52,18.637-332.673,41.132-525.71,25.104c-13.29-1.104-14.558-0.646-21.759-1.76
		c-230.326-35.635-320.531-43.344-696.531-145.182c-258-74.162-564.756-161.489-668-174.162c-277-34-571,96-631,111
		s-313.138,95.028-394,107c-412,61-685-94-685-94l-48,302l2456,151L2734,3744L2789.999,3206z"/>
	<g>
		
			<linearGradient id="SVGID_00000137122650249259143100000014825926696944871581_" gradientUnits="userSpaceOnUse" x1="1265.8516" y1="3267.3987" x2="1270.4991" y2="3057.8789">
			<stop  offset="0" style="stop-color:#2D2B71;stop-opacity:0"/>
			<stop  offset="0.1196" style="stop-color:#4B4380;stop-opacity:0.0837"/>
			<stop  offset="0.2469" style="stop-color:#66598F;stop-opacity:0.1729"/>
			<stop  offset="0.3796" style="stop-color:#7D6D9D;stop-opacity:0.2657"/>
			<stop  offset="0.5168" style="stop-color:#8F7FA9;stop-opacity:0.3617"/>
			<stop  offset="0.6605" style="stop-color:#9E8CB3;stop-opacity:0.4624"/>
			<stop  offset="0.8152" style="stop-color:#A796BA;stop-opacity:0.5706"/>
			<stop  offset="1" style="stop-color:#AB99BC;stop-opacity:0.7"/>
		</linearGradient>
		<polygon fill="url(#SVGID_00000137122650249259143100000014825926696944871581_)" points="1240,3246 1271,3067.732 1292.652,3246 
					"/>
		
			<linearGradient id="SVGID_00000096040311663908173650000013037929565519226782_" gradientUnits="userSpaceOnUse" x1="1305.8516" y1="3223.3987" x2="1310.4991" y2="3013.8789">
			<stop  offset="0" style="stop-color:#2D2B71;stop-opacity:0"/>
			<stop  offset="0.1196" style="stop-color:#4B4380;stop-opacity:0.0837"/>
			<stop  offset="0.2469" style="stop-color:#66598F;stop-opacity:0.1729"/>
			<stop  offset="0.3796" style="stop-color:#7D6D9D;stop-opacity:0.2657"/>
			<stop  offset="0.5168" style="stop-color:#8F7FA9;stop-opacity:0.3617"/>
			<stop  offset="0.6605" style="stop-color:#9E8CB3;stop-opacity:0.4624"/>
			<stop  offset="0.8152" style="stop-color:#A796BA;stop-opacity:0.5706"/>
			<stop  offset="1" style="stop-color:#AB99BC;stop-opacity:0.7"/>
		</linearGradient>
		<polygon fill="url(#SVGID_00000096040311663908173650000013037929565519226782_)" points="1280,3202 1311,3023.732 1332.652,3202 
					"/>
		
			<linearGradient id="SVGID_00000053519418335248296420000013565344114957078164_" gradientUnits="userSpaceOnUse" x1="1348.6194" y1="3301.8669" x2="1355.6042" y2="2986.9758">
			<stop  offset="0" style="stop-color:#2D2B71;stop-opacity:0"/>
			<stop  offset="0.1196" style="stop-color:#4B4380;stop-opacity:0.0837"/>
			<stop  offset="0.2469" style="stop-color:#66598F;stop-opacity:0.1729"/>
			<stop  offset="0.3796" style="stop-color:#7D6D9D;stop-opacity:0.2657"/>
			<stop  offset="0.5168" style="stop-color:#8F7FA9;stop-opacity:0.3617"/>
			<stop  offset="0.6605" style="stop-color:#9E8CB3;stop-opacity:0.4624"/>
			<stop  offset="0.8152" style="stop-color:#A796BA;stop-opacity:0.5706"/>
			<stop  offset="1" style="stop-color:#AB99BC;stop-opacity:0.7"/>
		</linearGradient>
		<polygon fill="url(#SVGID_00000053519418335248296420000013565344114957078164_)" points="1323,3270 1354,3001.732 1375.652,3270 
					"/>
		
			<linearGradient id="SVGID_00000116220905628895244040000014502854808839943327_" gradientUnits="userSpaceOnUse" x1="1374.6194" y1="3381.8669" x2="1381.6042" y2="3066.9758">
			<stop  offset="0" style="stop-color:#2D2B71;stop-opacity:0"/>
			<stop  offset="0.1196" style="stop-color:#4B4380;stop-opacity:0.0837"/>
			<stop  offset="0.2469" style="stop-color:#66598F;stop-opacity:0.1729"/>
			<stop  offset="0.3796" style="stop-color:#7D6D9D;stop-opacity:0.2657"/>
			<stop  offset="0.5168" style="stop-color:#8F7FA9;stop-opacity:0.3617"/>
			<stop  offset="0.6605" style="stop-color:#9E8CB3;stop-opacity:0.4624"/>
			<stop  offset="0.8152" style="stop-color:#A796BA;stop-opacity:0.5706"/>
			<stop  offset="1" style="stop-color:#AB99BC;stop-opacity:0.7"/>
		</linearGradient>
		<polygon fill="url(#SVGID_00000116220905628895244040000014502854808839943327_)" points="1349,3350 1380,3081.732 1401.652,3350 
					"/>
	</g>
	<g>
		
			<linearGradient id="SVGID_00000096031473516895615910000006676196527446063796_" gradientUnits="userSpaceOnUse" x1="1733.8516" y1="3240.3987" x2="1738.4991" y2="3030.8789">
			<stop  offset="0" style="stop-color:#2D2B71;stop-opacity:0"/>
			<stop  offset="0.1196" style="stop-color:#4B4380;stop-opacity:0.0837"/>
			<stop  offset="0.2469" style="stop-color:#66598F;stop-opacity:0.1729"/>
			<stop  offset="0.3796" style="stop-color:#7D6D9D;stop-opacity:0.2657"/>
			<stop  offset="0.5168" style="stop-color:#8F7FA9;stop-opacity:0.3617"/>
			<stop  offset="0.6605" style="stop-color:#9E8CB3;stop-opacity:0.4624"/>
			<stop  offset="0.8152" style="stop-color:#A796BA;stop-opacity:0.5706"/>
			<stop  offset="1" style="stop-color:#AB99BC;stop-opacity:0.7"/>
		</linearGradient>
		<polygon fill="url(#SVGID_00000096031473516895615910000006676196527446063796_)" points="1708,3219 1739,3040.732 1760.652,3219 
					"/>
		
			<linearGradient id="SVGID_00000176004629054441874550000009077659864223494326_" gradientUnits="userSpaceOnUse" x1="1773.8516" y1="3196.3987" x2="1778.4991" y2="2986.8789">
			<stop  offset="0" style="stop-color:#2D2B71;stop-opacity:0"/>
			<stop  offset="0.1196" style="stop-color:#4B4380;stop-opacity:0.0837"/>
			<stop  offset="0.2469" style="stop-color:#66598F;stop-opacity:0.1729"/>
			<stop  offset="0.3796" style="stop-color:#7D6D9D;stop-opacity:0.2657"/>
			<stop  offset="0.5168" style="stop-color:#8F7FA9;stop-opacity:0.3617"/>
			<stop  offset="0.6605" style="stop-color:#9E8CB3;stop-opacity:0.4624"/>
			<stop  offset="0.8152" style="stop-color:#A796BA;stop-opacity:0.5706"/>
			<stop  offset="1" style="stop-color:#AB99BC;stop-opacity:0.7"/>
		</linearGradient>
		<polygon fill="url(#SVGID_00000176004629054441874550000009077659864223494326_)" points="1748,3175 1779,2996.732 1800.652,3175 
					"/>
		
			<linearGradient id="SVGID_00000064314576456496310560000009898587231863557001_" gradientUnits="userSpaceOnUse" x1="1816.6194" y1="3274.8669" x2="1823.6042" y2="2959.9758">
			<stop  offset="0" style="stop-color:#2D2B71;stop-opacity:0"/>
			<stop  offset="0.1196" style="stop-color:#4B4380;stop-opacity:0.0837"/>
			<stop  offset="0.2469" style="stop-color:#66598F;stop-opacity:0.1729"/>
			<stop  offset="0.3796" style="stop-color:#7D6D9D;stop-opacity:0.2657"/>
			<stop  offset="0.5168" style="stop-color:#8F7FA9;stop-opacity:0.3617"/>
			<stop  offset="0.6605" style="stop-color:#9E8CB3;stop-opacity:0.4624"/>
			<stop  offset="0.8152" style="stop-color:#A796BA;stop-opacity:0.5706"/>
			<stop  offset="1" style="stop-color:#AB99BC;stop-opacity:0.7"/>
		</linearGradient>
		<polygon fill="url(#SVGID_00000064314576456496310560000009898587231863557001_)" points="1791,3243 1822,2974.732 1843.652,3243 
					"/>
		
			<linearGradient id="SVGID_00000043428908091980974750000013796927958876967558_" gradientUnits="userSpaceOnUse" x1="1842.6194" y1="3354.8669" x2="1849.6042" y2="3039.9758">
			<stop  offset="0" style="stop-color:#2D2B71;stop-opacity:0"/>
			<stop  offset="0.1196" style="stop-color:#4B4380;stop-opacity:0.0837"/>
			<stop  offset="0.2469" style="stop-color:#66598F;stop-opacity:0.1729"/>
			<stop  offset="0.3796" style="stop-color:#7D6D9D;stop-opacity:0.2657"/>
			<stop  offset="0.5168" style="stop-color:#8F7FA9;stop-opacity:0.3617"/>
			<stop  offset="0.6605" style="stop-color:#9E8CB3;stop-opacity:0.4624"/>
			<stop  offset="0.8152" style="stop-color:#A796BA;stop-opacity:0.5706"/>
			<stop  offset="1" style="stop-color:#AB99BC;stop-opacity:0.7"/>
		</linearGradient>
		<polygon fill="url(#SVGID_00000043428908091980974750000013796927958876967558_)" points="1817,3323 1848,3054.732 1869.652,3323 
					"/>
	</g>
	<g id="Layer_5">
		
			<linearGradient id="SVGID_00000063629109784027265530000011813599739143509641_" gradientUnits="userSpaceOnUse" x1="-2362.2568" y1="3321.0972" x2="2922.7668" y2="3321.0972">
			<stop  offset="0" style="stop-color:#272760"/>
			<stop  offset="1" style="stop-color:#3F4097"/>
		</linearGradient>
		<path fill="url(#SVGID_00000063629109784027265530000011813599739143509641_)" d="M-1305.863,3214.927
			c67.299,15.499,127.838-21.622,195.419-35.843c0,0,146.644-39.939,210.445-45.084c62-5,151.865-19.265,242.932,6.867
			c104.568,30.007,214.695,35.946,320.319,9.901c64.366-15.872,138.593-42.716,218.965-87.099
			C146,2918,207.885,2882.899,436.943,2901.95C666,2921,1006,3022,1096,3054c44.138,15.693,485.886,187.829,896.868,76.814
			C2566,2976,2872,3187,2872,3187v558l-3166-22l-2243-8l-114.388-436.902l509.355-183.255l127.388-30.347
			c0,0,311.742-15.549,511.162,88.111"/>
	</g>
	<g id="trees">
	</g>
	
		<linearGradient id="SVGID_00000038403026646945846290000000408613286232951168_" gradientUnits="userSpaceOnUse" x1="-2360.1584" y1="3365.2495" x2="2590.5557" y2="3365.2495">
		<stop  offset="0" style="stop-color:#221D50"/>
		<stop  offset="1" style="stop-color:#1D1648"/>
	</linearGradient>
	<path fill="url(#SVGID_00000038403026646945846290000000408613286232951168_)" d="M-2517.363,3009.599
		c0,0,424.906-9.832,691.635,165.785C-1598,3293-1493,3327-1493,3327s236,94,366,113c127.52,18.637,332.673,41.132,525.71,25.104
		c13.29-1.104,14.558-0.646,21.759-1.76C-349.205,3427.709-259,3420,117,3318.162C375,3244,681.756,3156.673,785,3144
		c277-34,571,96,631,111s313.138,95.028,394,107c412,61,685-94,685-94l48,302L87,3721l-2718-65L-2517.363,3009.599z"/>
</g>
<g id="girl">
</g>
<g id="stars">
	<g>
		<g>
			<path fill="#FFFFFF" d="M1109.198,2232.139c5.148,0,5.156-8,0-8C1104.051,2224.139,1104.042,2232.139,1109.198,2232.139
				L1109.198,2232.139z"/>
		</g>
	</g>
	<g>
		<g>
			<path fill="#FFFFFF" d="M2132.489,2137.12c5.148,0,5.156-8,0-8C2127.342,2129.12,2127.333,2137.12,2132.489,2137.12
				L2132.489,2137.12z"/>
		</g>
	</g>
	<g>
		<g>
			<path fill="#FFFFFF" d="M1788.956,2371.015c5.148,0,5.156-8,0-8C1783.808,2363.015,1783.8,2371.015,1788.956,2371.015
				L1788.956,2371.015z"/>
		</g>
	</g>
	<g>
		<g>
			<path fill="#FFFFFF" d="M1642.771,2129.81c5.148,0,5.156-8,0-8C1637.624,2121.81,1637.615,2129.81,1642.771,2129.81
				L1642.771,2129.81z"/>
		</g>
	</g>
	<g>
		<g>
			<path fill="#FFFFFF" d="M2176.344,1749.731c5.147,0,5.156-8,0-8C2171.197,1741.731,2171.188,1749.731,2176.344,1749.731
				L2176.344,1749.731z"/>
		</g>
	</g>
	<g>
		<g>
			<path fill="#FFFFFF" d="M1343.093,1464.671c5.148,0,5.156-8,0-8C1337.946,1456.671,1337.937,1464.671,1343.093,1464.671
				L1343.093,1464.671z"/>
		</g>
	</g>
	<g>
		<g>
			<path fill="#FFFFFF" d="M780.283,689.894c5.148,0,5.156-8,0-8C775.136,681.894,775.127,689.894,780.283,689.894L780.283,689.894z
				"/>
		</g>
	</g>
	<g>
		<g>
			<path fill="#FFFFFF" d="M1788.956,477.926c5.148,0,5.156-8,0-8C1783.808,469.926,1783.8,477.926,1788.956,477.926
				L1788.956,477.926z"/>
		</g>
	</g>
	<g>
		<g>
			<path fill="#FFFFFF" d="M2139.798,207.485c5.148,0,5.156-8,0-8C2134.651,199.485,2134.642,207.485,2139.798,207.485
				L2139.798,207.485z"/>
		</g>
	</g>
	<g>
		<g>
			<path fill="#FFFFFF" d="M626.79,83.228c5.148,0,5.156-8,0-8C621.642,75.228,621.633,83.228,626.79,83.228L626.79,83.228z"/>
		</g>
	</g>
	<g>
		<g>
			<path fill="#FFFFFF" d="M327.111,631.42c5.148,0,5.156-8,0-8C321.964,623.42,321.955,631.42,327.111,631.42L327.111,631.42z"/>
		</g>
	</g>
	<g>
		<g>
			<path fill="#FFFFFF" d="M188.236,1581.619c5.148,0,5.156-8,0-8C183.089,1573.619,183.08,1581.619,188.236,1581.619
				L188.236,1581.619z"/>
		</g>
	</g>
	<g>
		<g>
			<path fill="#FFFFFF" d="M217.473,2436.798c5.148,0,5.156-8,0-8C212.326,2428.798,212.317,2436.798,217.473,2436.798
				L217.473,2436.798z"/>
		</g>
	</g>
	<g>
		<g>
			<path fill="#FFFFFF" d="M158.999,1135.756c5.148,0,5.156-8,0-8C153.852,1127.756,153.843,1135.756,158.999,1135.756
				L158.999,1135.756z"/>
		</g>
	</g>
	<g>
		<g>
			<path fill="#FFFFFF" d="M2329.838,726.44c5.147,0,5.156-8,0-8C2324.69,718.44,2324.682,726.44,2329.838,726.44L2329.838,726.44z"
				/>
		</g>
	</g>
	<g>
		<g>
			<path fill="#FFFFFF" d="M2095.943,1099.21c5.147,0,5.156-8,0-8C2090.795,1091.21,2090.787,1099.21,2095.943,1099.21
				L2095.943,1099.21z"/>
		</g>
	</g>
	<g>
		<g>
			<path fill="#FFFFFF" d="M1423.495,887.243c5.148,0,5.156-8,0-8C1418.347,879.243,1418.339,887.243,1423.495,887.243
				L1423.495,887.243z"/>
		</g>
	</g>
	<g>
		<g>
			<path fill="#FFFFFF" d="M707.191,1910.534c5.148,0,5.156-8,0-8C702.043,1902.534,702.035,1910.534,707.191,1910.534
				L707.191,1910.534z"/>
		</g>
	</g>
	<g>
		<g>
			<path fill="#FFFFFF" d="M626.79,265.959c5.148,0,5.156-8,0-8C621.642,257.959,621.633,265.959,626.79,265.959L626.79,265.959z"/>
		</g>
	</g>
	<g>
		<g>
			<path fill="#FFFFFF" d="M392.894,945.716c5.148,0,5.156-8,0-8C387.747,937.716,387.738,945.716,392.894,945.716L392.894,945.716z
				"/>
		</g>
	</g>
	<g>
		<g>
			<path fill="#FFFFFF" d="M2373.693,1077.282c5.148,0,5.156-8,0-8C2368.546,1069.282,2368.537,1077.282,2373.693,1077.282
				L2373.693,1077.282z"/>
		</g>
	</g>
	<g>
		<g>
			<path fill="#FFFFFF" d="M2293.292,1508.526c5.148,0,5.156-8,0-8C2288.144,1500.526,2288.136,1508.526,2293.292,1508.526
				L2293.292,1508.526z"/>
		</g>
	</g>
	<g>
		<g>
			<path fill="#FFFFFF" d="M1379.639,1800.895c5.148,0,5.156-8,0-8C1374.492,1792.895,1374.483,1800.895,1379.639,1800.895
				L1379.639,1800.895z"/>
		</g>
	</g>
	<g>
		<g>
			<path fill="#FFFFFF" d="M1226.146,97.847c5.148,0,5.156-8,0-8C1220.998,89.847,1220.99,97.847,1226.146,97.847L1226.146,97.847z"
				/>
		</g>
	</g>
	<g>
		<g>
			<path fill="#FFFFFF" d="M853.375,200.176c5.148,0,5.156-8,0-8C848.228,192.176,848.219,200.176,853.375,200.176L853.375,200.176z
				"/>
		</g>
	</g>
	<g>
		<g>
			<path fill="#FFFFFF" d="M1218.836,565.637c5.148,0,5.156-8,0-8C1213.689,557.637,1213.68,565.637,1218.836,565.637
				L1218.836,565.637z"/>
		</g>
	</g>
	<g>
		<g>
			<path fill="#FFFFFF" d="M1935.14,1303.868c5.148,0,5.156-8,0-8C1929.993,1295.868,1929.984,1303.868,1935.14,1303.868
				L1935.14,1303.868z"/>
		</g>
	</g>
	<g>
		<g>
			<path fill="#FFFFFF" d="M1767.028,90.538c5.148,0,5.156-8,0-8C1761.88,82.538,1761.872,90.538,1767.028,90.538L1767.028,90.538z"
				/>
		</g>
	</g>
	<g>
		<g>
			<path fill="#FFFFFF" d="M2351.766,156.321c5.148,0,5.156-8,0-8C2346.618,148.321,2346.61,156.321,2351.766,156.321
				L2351.766,156.321z"/>
		</g>
	</g>
	<g>
		<g>
			<path fill="#FFFFFF" d="M2008.232,660.657c5.148,0,5.156-8,0-8C2003.085,652.657,2003.076,660.657,2008.232,660.657
				L2008.232,660.657z"/>
		</g>
	</g>
	<g>
		<g>
			<path fill="#FFFFFF" d="M21.517,2020.245c5.148,0,5.156-8,0-8C16.369,2012.245,16.36,2020.245,21.517,2020.245L21.517,2020.245z"
				/>
		</g>
	</g>
</g>
</svg>
