<svg width="1644" height="4000" viewBox="0 0 1744 4000" fill="none" xmlns="http://www.w3.org/2000/svg">
<g clip-path="url(#clip0_154_141)">
<rect width="1644" height="4000" fill="url(#paint0_linear_154_141)"/>
<g filter="url(#filter0_f_154_141)">
<path d="M1438.33 962.632C1558.09 1169.92 1509.06 1371.8 1398.52 1435.66C1084.59 1586.04 1132.28 1277.07 1163.31 1056.96C976.107 1016.13 894.147 757.345 1004.68 693.486C1115.21 629.627 1318.57 755.34 1438.33 962.632Z" fill="#251268"/>
</g>
<g filter="url(#filter1_f_154_141)">
<path d="M1438.33 962.632C1558.09 1169.92 1509.06 1371.8 1398.52 1435.66C1084.59 1586.04 1132.28 1277.07 1163.31 1056.96C976.107 1016.13 894.147 757.345 1004.68 693.486C1115.21 629.627 1318.57 755.34 1438.33 962.632Z" fill="#251268"/>
</g>
<g filter="url(#filter2_f_154_141)">
<path d="M1438.33 962.632C1558.09 1169.92 1509.06 1371.8 1398.52 1435.66C1084.59 1586.04 1132.28 1277.07 1163.31 1056.96C976.107 1016.13 894.147 757.345 1004.68 693.486C1115.21 629.627 1318.57 755.34 1438.33 962.632Z" fill="#251268"/>
</g>
<g filter="url(#filter3_f_154_141)">
<path d="M1438.33 962.632C1558.09 1169.92 1509.06 1371.8 1398.52 1435.66C1084.59 1586.04 1132.28 1277.07 1163.31 1056.96C976.107 1016.13 894.147 757.345 1004.68 693.486C1115.21 629.627 1318.57 755.34 1438.33 962.632Z" fill="#251268"/>
</g>
<g filter="url(#filter4_f_154_141)">
<path d="M1438.33 962.632C1558.09 1169.92 1509.06 1371.8 1398.52 1435.66C1084.59 1586.04 1132.28 1277.07 1163.31 1056.96C976.107 1016.13 894.147 757.345 1004.68 693.486C1115.21 629.627 1318.57 755.34 1438.33 962.632Z" fill="#251268"/>
</g>
<path d="M1201.93 354.646C1232.65 350.508 1254.15 322.65 1249.94 292.424C1245.73 262.198 1217.41 241.049 1186.69 245.188C1155.97 249.326 1134.47 277.184 1138.68 307.41C1142.89 337.636 1171.2 358.785 1201.93 354.646Z" fill="url(#paint1_radial_154_141)"/>
<path d="M1270.44 399.178C1280.68 402.56 1291.77 397.137 1295.2 387.066C1298.64 376.994 1293.13 366.089 1282.89 362.707C1272.65 359.325 1261.57 364.748 1258.13 374.819C1254.7 384.891 1260.21 395.796 1270.44 399.178Z" fill="url(#paint2_radial_154_141)"/>
<g filter="url(#filter5_i_154_141)">
<path d="M1397.39 593.251C1399.24 506.648 1333.19 429.713 1249.85 421.413C1166.51 413.113 1097.45 476.591 1095.59 563.195C1093.74 649.798 1159.79 726.733 1243.13 735.033C1326.47 743.333 1395.53 679.855 1397.39 593.251Z" fill="url(#paint3_radial_154_141)"/>
<path d="M1397.39 593.251C1399.24 506.648 1333.19 429.713 1249.85 421.413C1166.51 413.113 1097.45 476.591 1095.59 563.195C1093.74 649.798 1159.79 726.733 1243.13 735.033C1326.47 743.333 1395.53 679.855 1397.39 593.251Z" fill="url(#paint4_radial_154_141)"/>
</g>
<path d="M258.828 316.216C279.382 340.059 315.374 342.726 339.217 322.172C363.06 301.617 365.726 265.626 345.172 241.783C324.618 217.94 288.627 215.274 264.783 235.828C240.94 256.382 238.274 292.373 258.828 316.216Z" fill="url(#paint5_radial_154_141)" fill-opacity="0.7"/>
<g filter="url(#filter6_f_154_141)">
<path d="M179.067 479C179.067 575.65 98.2396 571 -1.4664 571C-101.172 571 -182 575.65 -182 479C-182 382.35 -101.172 304 -1.4664 304C98.2396 304 179.067 382.35 179.067 479Z" fill="#3E1D6A"/>
</g>
<g filter="url(#filter7_f_154_141)">
<path d="M193.067 469C193.067 565.65 112.24 571 12.5336 571C-87.1724 571 -168 565.65 -168 469C-168 372.35 -87.1724 294 12.5336 294C112.24 294 193.067 372.35 193.067 469Z" fill="#3E1D6A"/>
</g>
<path d="M41.9195 489.655C64.0971 515.38 102.93 518.257 128.655 496.081C154.381 473.903 157.258 435.071 135.081 409.345C112.905 383.62 74.0715 380.743 48.3452 402.92C22.6199 425.097 19.7429 463.929 41.9195 489.655Z" fill="url(#paint6_radial_154_141)"/>
<path d="M349.154 989.524L349.125 990.689L357.658 1022.01L358.067 1022.25L370.507 1009.76L349.154 989.524Z" fill="white" fill-opacity="0.68"/>
<path d="M349.154 989.524L340.944 1017.55L358.067 1022.25L353.925 1007.04L349.154 989.524Z" fill="white" fill-opacity="0.333"/>
<path d="M358.816 1025L358.694 1025.27L361.733 1036.43L362.058 1036.9L371.267 1012.51L358.816 1025Z" fill="white" fill-opacity="0.68"/>
<path d="M362.057 1036.9L358.816 1025L341.695 1020.3L362.057 1036.9Z" fill="white" fill-opacity="0.333"/>
<path d="M358.066 1022.24L370.506 1009.75L353.925 1007.04L358.066 1022.24Z" fill="white"/>
<path d="M482.336 1019.12L680.886 1014.19" stroke="url(#paint7_linear_154_141)" stroke-width="1.96429" stroke-linecap="round"/>
<g filter="url(#filter8_f_154_141)">
<ellipse cx="1153.5" cy="1278.5" rx="174.5" ry="183.5" fill="#D0719B"/>
</g>
<path d="M1145.25 1331.11L1139.62 1316.16L1124.42 1321.7L1121.14 1313L1145.19 1304.24L1154.09 1327.89L1145.25 1331.11ZM1159.68 1342.73L1156.41 1334.03L1147.56 1337.25L1150.84 1345.95L1159.68 1342.73ZM1141.32 1339.53L1126.12 1345.07L1120.49 1330.11L1111.65 1333.32L1111.65 1333.33L1120.56 1356.99L1144.61 1348.23L1141.32 1339.53ZM1118.18 1323.97L1114.91 1315.27L1106.06 1318.5L1109.34 1327.2L1118.18 1323.97Z" fill="url(#paint8_linear_154_141)"/>
<g filter="url(#filter9_f_154_141)">
<ellipse cx="1383.09" cy="1163.55" rx="52.2413" ry="55.7474" transform="rotate(-0.8823 1383.09 1163.55)" fill="#6B2C96"/>
</g>
<g filter="url(#filter10_f_154_141)">
<ellipse cx="797.099" cy="937.685" rx="653.297" ry="391.72" transform="rotate(38.6945 797.099 937.685)" fill="#AD38C1" fill-opacity="0.5"/>
</g>
<g filter="url(#filter11_f_154_141)">
<ellipse cx="703.889" cy="935.753" rx="356.822" ry="257.225" transform="rotate(2.95 703.889 935.753)" fill="#AD38C1"/>
</g>
<path d="M606.971 683.441C535.401 665.204 476.983 666.588 439.877 687.235C402.838 707.844 388.755 746.7 399.808 798.505C410.864 850.325 446.509 912.386 501.761 975.91C557.006 1039.43 629.03 1101.16 707.651 1152.37C786.272 1203.59 867.496 1241.69 939.838 1261.29C1012.2 1280.91 1071.91 1281 1110.62 1261.7C1129.95 1252.07 1143.57 1237.83 1151.2 1219.65C1158.84 1201.47 1160.5 1179.31 1155.88 1153.83C1146.62 1102.86 1112.65 1041.26 1058.72 977.736M703.41 660.804C576.915 590.74 461.665 552.681 378.396 553.392C336.773 553.748 304.562 563.778 282.723 582.528C260.89 601.273 249.353 628.793 249.204 664.273C248.908 735.271 294.244 833.32 377.19 940.776C460.121 1048.21 575.139 1157.92 701.534 1250.13C827.933 1342.35 957.374 1410.99 1066.55 1443.73C1121.13 1460.09 1168.83 1466.93 1207.81 1464.4C1246.79 1461.86 1277.02 1449.96 1296.73 1428.86C1316.44 1407.77 1325.07 1378.11 1322.65 1341.54C1320.21 1304.96 1306.73 1261.51 1282.28 1212.91C1233.37 1115.7 1143.84 1004.35 1029.79 898.923M-30.134 421.603C-153.335 559.592 90.5455 939.336 514.588 1269.79C938.631 1600.24 1382.26 1756.26 1505.46 1618.28C1628.66 1480.29 1384.79 1100.54 960.741 770.09C536.697 439.638 93.0671 283.615 -30.134 421.603Z" stroke="white" stroke-opacity="0.1" stroke-width="1.03922"/>
<g filter="url(#filter12_f_154_141)">
<ellipse cx="761.287" cy="1026.99" rx="153.756" ry="150.278" transform="rotate(2.95 761.287 1026.99)" fill="#9489E4" fill-opacity="0.51"/>
</g>
<g filter="url(#filter13_f_154_141)">
<ellipse cx="781.027" cy="1007.19" rx="85.8235" ry="83.8818" transform="rotate(2.95 781.027 1007.19)" fill="#A5FAFF"/>
</g>
<g filter="url(#filter14_f_154_141)">
<path d="M352.352 778.172C375.761 770.611 388.508 745.813 380.824 722.782C373.14 699.751 347.933 687.209 324.524 694.77C301.115 702.329 288.367 727.127 296.051 750.158C303.735 773.189 328.942 785.731 352.352 778.172Z" fill="url(#paint9_radial_154_141)"/>
</g>
<path d="M299.041 1074.24C264.764 1043.31 262.468 990.895 293.914 957.175C325.359 923.455 378.638 921.196 412.914 952.13C447.192 983.064 449.488 1035.48 418.043 1069.2C386.597 1102.92 333.319 1105.18 299.041 1074.24Z" fill="url(#paint10_radial_154_141)"/>
<g filter="url(#filter15_f_154_141)">
<path d="M126.884 1078.8C146.263 1070.07 154.776 1047.53 145.897 1028.46C137.018 1009.4 114.111 1001.02 94.7307 1009.76C75.3508 1018.49 66.8382 1041.03 75.717 1060.1C84.5959 1079.16 107.504 1087.54 126.884 1078.8Z" fill="url(#paint11_radial_154_141)"/>
</g>
<g filter="url(#filter16_f_154_141)">
<path d="M654.084 1111.39C636.1 1122.14 630.379 1145.2 641.306 1162.89C652.232 1180.58 675.667 1186.21 693.651 1175.46C711.634 1164.71 717.354 1141.66 706.428 1123.96C695.502 1106.27 672.067 1100.64 654.084 1111.39Z" fill="url(#paint12_radial_154_141)"/>
</g>
<path d="M1242.48 1057.4C1285.01 1075.91 1334.74 1056.99 1353.55 1015.14C1372.36 973.292 1353.13 924.366 1310.6 905.859C1268.06 887.353 1218.33 906.276 1199.52 948.123C1180.71 989.971 1199.94 1038.9 1242.48 1057.4Z" fill="url(#paint13_radial_154_141)"/>
<path d="M1294.76 977.195C1295.53 972.039 1291.59 969.266 1286.21 967.417L1287.95 960.432L1283.69 959.372L1281.99 966.173C1280.86 965.895 1279.71 965.632 1278.57 965.372L1280.28 958.525L1276.02 957.466L1274.27 964.449C1273.34 964.238 1272.43 964.03 1271.54 963.811L1271.55 963.789L1265.67 962.325L1264.53 966.866C1264.53 966.866 1267.7 967.589 1267.63 967.634C1269.36 968.064 1269.67 969.203 1269.62 970.107L1267.63 978.065C1267.75 978.095 1267.9 978.139 1268.07 978.206C1267.93 978.171 1267.78 978.133 1267.62 978.095L1264.83 989.243C1264.62 989.766 1264.08 990.551 1262.87 990.253C1262.92 990.315 1259.77 989.481 1259.77 989.481L1257.66 994.349L1263.21 995.728C1264.24 995.986 1265.25 996.256 1266.25 996.51L1264.48 1003.58L1268.75 1004.64L1270.49 997.645C1271.66 997.96 1272.79 998.251 1273.89 998.525L1272.15 1005.48L1276.42 1006.54L1278.18 999.49C1285.46 1000.86 1290.93 1000.31 1293.23 993.751C1295.09 988.47 1293.14 985.424 1289.31 983.438C1292.1 982.798 1294.2 980.97 1294.76 977.195ZM1285.01 990.818C1283.69 996.099 1274.77 993.244 1271.88 992.528L1274.22 983.168C1277.12 983.888 1286.39 985.312 1285.01 990.818ZM1286.33 977.119C1285.13 981.922 1277.7 979.482 1275.29 978.883L1277.42 970.394C1279.83 970.992 1287.58 972.109 1286.33 977.119Z" fill="url(#paint14_linear_154_141)"/>
<path d="M1020.56 949.127C995.944 965.347 989.353 998.128 1005.84 1022.34C1022.33 1046.56 1055.64 1053.05 1080.26 1036.83C1104.88 1020.61 1111.46 987.827 1094.98 963.608C1078.49 939.391 1045.17 932.908 1020.56 949.127Z" fill="url(#paint15_radial_154_141)"/>
<path d="M538.492 1021.09L739.047 1017.15" stroke="url(#paint16_linear_154_141)" stroke-width="1.96429" stroke-linecap="round"/>
<g filter="url(#filter17_i_154_141)">
<path d="M1047.73 1259.38C1088.1 1212.75 1159.25 1207.14 1206.65 1246.85C1254.05 1286.56 1259.75 1356.56 1219.38 1403.19C1179.02 1449.83 1107.87 1455.44 1060.47 1415.73C1013.07 1376.01 1007.37 1306.01 1047.73 1259.38Z" fill="url(#paint17_radial_154_141)"/>
</g>
<path d="M763.114 988.538L997.022 1194.64" stroke="url(#paint18_linear_154_141)" stroke-width="3.20413" stroke-linecap="round"/>
<g filter="url(#filter18_f_154_141)">
<ellipse cx="1309.62" cy="1163.5" rx="37.3134" ry="36.1801" transform="rotate(-171.642 1309.62 1163.5)" fill="url(#paint19_radial_154_141)"/>
</g>
<path d="M300.424 1374.76C332.26 1330.85 321.886 1269.86 277.252 1238.54C232.62 1207.22 170.629 1217.43 138.793 1261.34C106.957 1305.25 117.331 1366.24 161.965 1397.56C206.598 1428.88 268.588 1418.67 300.424 1374.76Z" fill="url(#paint20_radial_154_141)"/>
<g filter="url(#filter19_f_154_141)">
<ellipse cx="703.889" cy="935.753" rx="356.822" ry="257.225" transform="rotate(2.95 703.889 935.753)" fill="#AD38C1"/>
</g>
<path d="M606.971 683.441C535.401 665.204 476.983 666.588 439.877 687.235C402.838 707.844 388.755 746.7 399.808 798.505C410.864 850.325 446.509 912.386 501.761 975.91C557.006 1039.43 629.03 1101.16 707.651 1152.37C786.272 1203.59 867.496 1241.69 939.838 1261.29C1012.2 1280.91 1071.91 1281 1110.62 1261.7C1129.95 1252.07 1143.57 1237.83 1151.2 1219.65C1158.84 1201.47 1160.5 1179.31 1155.88 1153.83C1146.62 1102.86 1112.65 1041.26 1058.72 977.736M703.41 660.804C576.915 590.74 461.665 552.681 378.396 553.392C336.773 553.748 304.562 563.778 282.723 582.528C260.89 601.273 249.353 628.793 249.204 664.273C248.908 735.271 294.244 833.32 377.19 940.776C460.121 1048.21 575.139 1157.92 701.534 1250.13C827.933 1342.35 957.374 1410.99 1066.55 1443.73C1121.13 1460.09 1168.83 1466.93 1207.81 1464.4C1246.79 1461.86 1277.02 1449.96 1296.73 1428.86C1316.44 1407.77 1325.07 1378.11 1322.65 1341.54C1320.21 1304.96 1306.73 1261.51 1282.28 1212.91C1233.37 1115.7 1143.84 1004.35 1029.79 898.923M-30.134 421.603C-153.335 559.592 90.5455 939.336 514.588 1269.79C938.631 1600.24 1382.26 1756.26 1505.46 1618.28C1628.66 1480.29 1384.79 1100.54 960.741 770.09C536.697 439.638 93.0671 283.615 -30.134 421.603Z" stroke="white" stroke-opacity="0.1" stroke-width="1.03922"/>
<g filter="url(#filter20_f_154_141)">
<ellipse cx="761.287" cy="1026.99" rx="153.756" ry="150.278" transform="rotate(2.95 761.287 1026.99)" fill="#9489E4" fill-opacity="0.51"/>
</g>
<g filter="url(#filter21_f_154_141)">
<ellipse cx="781.027" cy="1007.19" rx="85.8235" ry="83.8818" transform="rotate(2.95 781.027 1007.19)" fill="#A5FAFF"/>
</g>
<g filter="url(#filter22_f_154_141)">
<path d="M352.352 778.172C375.761 770.611 388.508 745.813 380.824 722.782C373.14 699.751 347.933 687.209 324.524 694.77C301.115 702.329 288.367 727.127 296.051 750.158C303.735 773.189 328.942 785.731 352.352 778.172Z" fill="url(#paint21_radial_154_141)"/>
</g>
<path d="M299.041 1074.24C264.764 1043.31 262.468 990.895 293.914 957.175C325.359 923.455 378.638 921.196 412.914 952.13C447.192 983.064 449.488 1035.48 418.043 1069.2C386.597 1102.92 333.319 1105.18 299.041 1074.24Z" fill="url(#paint22_radial_154_141)"/>
<g filter="url(#filter23_f_154_141)">
<path d="M126.884 1078.8C146.263 1070.07 154.776 1047.53 145.897 1028.46C137.018 1009.4 114.111 1001.02 94.7307 1009.76C75.3508 1018.49 66.8382 1041.03 75.717 1060.1C84.5959 1079.16 107.504 1087.54 126.884 1078.8Z" fill="url(#paint23_radial_154_141)"/>
</g>
<g filter="url(#filter24_f_154_141)">
<path d="M654.084 1111.39C636.1 1122.14 630.379 1145.2 641.306 1162.89C652.232 1180.58 675.667 1186.21 693.651 1175.46C711.634 1164.71 717.354 1141.66 706.428 1123.96C695.502 1106.27 672.067 1100.64 654.084 1111.39Z" fill="url(#paint24_radial_154_141)"/>
</g>
<path d="M1242.48 1057.4C1285.01 1075.91 1334.74 1056.99 1353.55 1015.14C1372.36 973.292 1353.13 924.366 1310.6 905.859C1268.06 887.353 1218.33 906.276 1199.52 948.123C1180.71 989.971 1199.94 1038.9 1242.48 1057.4Z" fill="url(#paint25_radial_154_141)"/>
<path d="M1020.56 949.127C995.944 965.347 989.353 998.128 1005.84 1022.34C1022.33 1046.56 1055.64 1053.05 1080.26 1036.83C1104.88 1020.61 1111.46 987.827 1094.98 963.608C1078.49 939.391 1045.17 932.908 1020.56 949.127Z" fill="url(#paint26_radial_154_141)"/>
<path d="M538.492 1021.09L739.047 1017.15" stroke="url(#paint27_linear_154_141)" stroke-width="1.96429" stroke-linecap="round"/>
<g filter="url(#filter25_i_154_141)">
<path d="M1047.73 1259.38C1088.1 1212.75 1159.25 1207.14 1206.65 1246.85C1254.05 1286.56 1259.75 1356.56 1219.38 1403.19C1179.02 1449.83 1107.87 1455.44 1060.47 1415.73C1013.07 1376.01 1007.37 1306.01 1047.73 1259.38Z" fill="url(#paint28_radial_154_141)"/>
</g>
<path d="M763.114 988.538L997.022 1194.64" stroke="url(#paint29_linear_154_141)" stroke-width="3.20413" stroke-linecap="round"/>
<g filter="url(#filter26_f_154_141)">
<ellipse cx="1309.62" cy="1163.5" rx="37.3134" ry="36.1801" transform="rotate(-171.642 1309.62 1163.5)" fill="url(#paint30_radial_154_141)"/>
</g>
<path d="M300.424 1374.76C332.26 1330.85 321.886 1269.86 277.252 1238.54C232.62 1207.22 170.629 1217.43 138.793 1261.34C106.957 1305.25 117.331 1366.24 161.965 1397.56C206.598 1428.88 268.588 1418.67 300.424 1374.76Z" fill="url(#paint31_radial_154_141)"/>
<g filter="url(#filter27_f_154_141)">
<ellipse cx="797.099" cy="937.685" rx="653.297" ry="391.72" transform="rotate(38.6945 797.099 937.685)" fill="#2F0E98"/>
</g>
<g filter="url(#filter28_f_154_141)">
<ellipse cx="286.146" cy="126.701" rx="286.146" ry="126.701" transform="matrix(0.876054 0.482212 -0.494335 0.869272 61.0879 3503.29)" fill="#52E094" fill-opacity="0.7"/>
</g>
<g filter="url(#filter29_f_154_141)">
<path d="M599.661 2965.08C599.661 3111.36 468.789 3076.4 307.351 3076.4C145.913 3076.4 15.0415 3111.36 15.0415 2965.08C15.0415 2818.81 145.913 2700.23 307.351 2700.23C468.789 2700.23 599.661 2818.81 599.661 2965.08Z" fill="url(#paint32_linear_154_141)"/>
</g>
<g filter="url(#filter30_f_154_141)">
<ellipse cx="276.044" cy="3263.06" rx="218.104" ry="214.578" fill="#251268"/>
</g>
<g filter="url(#filter31_f_154_141)">
<ellipse cx="276.044" cy="3263.06" rx="148.689" ry="146.285" fill="black"/>
</g>
<path d="M18.1434 3119.32C-45.0724 3122.1 -92.4745 3137.86 -117.485 3164.25C-142.451 3190.6 -143.943 3226.32 -121.545 3266.49C-99.1407 3306.67 -53.9925 3349.19 7.56214 3388.01C69.1095 3426.83 143.913 3459.97 221.399 3482.75C298.886 3505.53 375.116 3516.79 439.315 3514.94C503.529 3513.1 552.37 3498.24 579.039 3472.57C592.357 3459.75 599.821 3444.54 601.374 3427.57C602.925 3410.59 598.57 3391.81 588.221 3371.85C567.504 3331.92 523.849 3289.37 463.373 3250.22M91.148 3076.43C-30.3381 3050.01 -134.376 3047.3 -202.27 3068.71C-236.206 3079.42 -259.953 3095.79 -272.972 3116.79C-285.986 3137.78 -288.321 3163.48 -279.291 3192.92C-261.222 3251.83 -198.869 3321.75 -103.342 3390.05C-7.83268 3458.34 114.495 3520.49 241.612 3565.3C368.734 3610.11 492.262 3634.62 589.96 3634.44C638.805 3634.35 679.569 3628.09 710.783 3616.24C741.997 3604.39 763.634 3586.96 774.31 3564.55C784.986 3542.13 784.386 3515.4 772.977 3485.69C761.55 3455.99 739.327 3423.36 706.8 3389.19C641.736 3320.87 539.831 3250.98 419.393 3192.14M-570.252 3061.68C-635.385 3206.85 -338.058 3460.56 93.845 3628.35C525.749 3796.14 928.674 3814.48 993.808 3669.31C1058.94 3524.14 761.622 3270.43 329.714 3102.64C-102.19 2934.85 -505.119 2916.51 -570.252 3061.68Z" stroke="white" stroke-opacity="0.1" stroke-width="0.901104"/>
</g>
<defs>
<filter id="filter0_f_154_141" x="704.78" y="426.795" width="1053.13" height="1298.63" filterUnits="userSpaceOnUse" color-interpolation-filters="sRGB">
<feFlood flood-opacity="0" result="BackgroundImageFix"/>
<feBlend mode="normal" in="SourceGraphic" in2="BackgroundImageFix" result="shape"/>
<feGaussianBlur stdDeviation="125" result="effect1_foregroundBlur_154_141"/>
</filter>
<filter id="filter1_f_154_141" x="704.78" y="426.795" width="1053.13" height="1298.63" filterUnits="userSpaceOnUse" color-interpolation-filters="sRGB">
<feFlood flood-opacity="0" result="BackgroundImageFix"/>
<feBlend mode="normal" in="SourceGraphic" in2="BackgroundImageFix" result="shape"/>
<feGaussianBlur stdDeviation="125" result="effect1_foregroundBlur_154_141"/>
</filter>
<filter id="filter2_f_154_141" x="704.78" y="426.795" width="1053.13" height="1298.63" filterUnits="userSpaceOnUse" color-interpolation-filters="sRGB">
<feFlood flood-opacity="0" result="BackgroundImageFix"/>
<feBlend mode="normal" in="SourceGraphic" in2="BackgroundImageFix" result="shape"/>
<feGaussianBlur stdDeviation="125" result="effect1_foregroundBlur_154_141"/>
</filter>
<filter id="filter3_f_154_141" x="704.78" y="426.795" width="1053.13" height="1298.63" filterUnits="userSpaceOnUse" color-interpolation-filters="sRGB">
<feFlood flood-opacity="0" result="BackgroundImageFix"/>
<feBlend mode="normal" in="SourceGraphic" in2="BackgroundImageFix" result="shape"/>
<feGaussianBlur stdDeviation="125" result="effect1_foregroundBlur_154_141"/>
</filter>
<filter id="filter4_f_154_141" x="704.78" y="426.795" width="1053.13" height="1298.63" filterUnits="userSpaceOnUse" color-interpolation-filters="sRGB">
<feFlood flood-opacity="0" result="BackgroundImageFix"/>
<feBlend mode="normal" in="SourceGraphic" in2="BackgroundImageFix" result="shape"/>
<feGaussianBlur stdDeviation="125" result="effect1_foregroundBlur_154_141"/>
</filter>
<filter id="filter5_i_154_141" x="1095.55" y="420.684" width="301.87" height="315.078" filterUnits="userSpaceOnUse" color-interpolation-filters="sRGB">
<feFlood flood-opacity="0" result="BackgroundImageFix"/>
<feBlend mode="normal" in="SourceGraphic" in2="BackgroundImageFix" result="shape"/>
<feColorMatrix in="SourceAlpha" type="matrix" values="0 0 0 0 0 0 0 0 0 0 0 0 0 0 0 0 0 0 127 0" result="hardAlpha"/>
<feOffset/>
<feGaussianBlur stdDeviation="15"/>
<feComposite in2="hardAlpha" operator="arithmetic" k2="-1" k3="1"/>
<feColorMatrix type="matrix" values="0 0 0 0 0.432292 0 0 0 0 0.262587 0 0 0 0 0.192708 0 0 0 0.25 0"/>
<feBlend mode="normal" in2="shape" result="effect1_innerShadow_154_141"/>
</filter>
<filter id="filter6_f_154_141" x="-389.51" y="96.4901" width="776.087" height="682.055" filterUnits="userSpaceOnUse" color-interpolation-filters="sRGB">
<feFlood flood-opacity="0" result="BackgroundImageFix"/>
<feBlend mode="normal" in="SourceGraphic" in2="BackgroundImageFix" result="shape"/>
<feGaussianBlur stdDeviation="103.755" result="effect1_foregroundBlur_154_141"/>
</filter>
<filter id="filter7_f_154_141" x="-375.51" y="86.4901" width="776.087" height="692.02" filterUnits="userSpaceOnUse" color-interpolation-filters="sRGB">
<feFlood flood-opacity="0" result="BackgroundImageFix"/>
<feBlend mode="normal" in="SourceGraphic" in2="BackgroundImageFix" result="shape"/>
<feGaussianBlur stdDeviation="103.755" result="effect1_foregroundBlur_154_141"/>
</filter>
<filter id="filter8_f_154_141" x="829" y="945" width="649" height="667" filterUnits="userSpaceOnUse" color-interpolation-filters="sRGB">
<feFlood flood-opacity="0" result="BackgroundImageFix"/>
<feBlend mode="normal" in="SourceGraphic" in2="BackgroundImageFix" result="shape"/>
<feGaussianBlur stdDeviation="75" result="effect1_foregroundBlur_154_141"/>
</filter>
<filter id="filter9_f_154_141" x="1280.85" y="1057.8" width="204.485" height="211.494" filterUnits="userSpaceOnUse" color-interpolation-filters="sRGB">
<feFlood flood-opacity="0" result="BackgroundImageFix"/>
<feBlend mode="normal" in="SourceGraphic" in2="BackgroundImageFix" result="shape"/>
<feGaussianBlur stdDeviation="25" result="effect1_foregroundBlur_154_141"/>
</filter>
<filter id="filter10_f_154_141" x="-606.244" y="-410.083" width="2806.68" height="2695.53" filterUnits="userSpaceOnUse" color-interpolation-filters="sRGB">
<feFlood flood-opacity="0" result="BackgroundImageFix"/>
<feBlend mode="normal" in="SourceGraphic" in2="BackgroundImageFix" result="shape"/>
<feGaussianBlur stdDeviation="418.78" result="effect1_foregroundBlur_154_141"/>
</filter>
<filter id="filter11_f_154_141" x="147.29" y="478.203" width="1113.2" height="915.101" filterUnits="userSpaceOnUse" color-interpolation-filters="sRGB">
<feFlood flood-opacity="0" result="BackgroundImageFix"/>
<feBlend mode="normal" in="SourceGraphic" in2="BackgroundImageFix" result="shape"/>
<feGaussianBlur stdDeviation="100" result="effect1_foregroundBlur_154_141"/>
</filter>
<filter id="filter12_f_154_141" x="537.536" y="806.701" width="447.501" height="440.582" filterUnits="userSpaceOnUse" color-interpolation-filters="sRGB">
<feFlood flood-opacity="0" result="BackgroundImageFix"/>
<feBlend mode="normal" in="SourceGraphic" in2="BackgroundImageFix" result="shape"/>
<feGaussianBlur stdDeviation="35" result="effect1_foregroundBlur_154_141"/>
</filter>
<filter id="filter13_f_154_141" x="635.207" y="863.298" width="291.641" height="287.778" filterUnits="userSpaceOnUse" color-interpolation-filters="sRGB">
<feFlood flood-opacity="0" result="BackgroundImageFix"/>
<feBlend mode="normal" in="SourceGraphic" in2="BackgroundImageFix" result="shape"/>
<feGaussianBlur stdDeviation="30" result="effect1_foregroundBlur_154_141"/>
</filter>
<filter id="filter14_f_154_141" x="289.814" y="688.568" width="97.2471" height="95.8042" filterUnits="userSpaceOnUse" color-interpolation-filters="sRGB">
<feFlood flood-opacity="0" result="BackgroundImageFix"/>
<feBlend mode="normal" in="SourceGraphic" in2="BackgroundImageFix" result="shape"/>
<feGaussianBlur stdDeviation="2" result="effect1_foregroundBlur_154_141"/>
</filter>
<filter id="filter15_f_154_141" x="67.2002" y="1001.3" width="87.2139" height="85.9653" filterUnits="userSpaceOnUse" color-interpolation-filters="sRGB">
<feFlood flood-opacity="0" result="BackgroundImageFix"/>
<feBlend mode="normal" in="SourceGraphic" in2="BackgroundImageFix" result="shape"/>
<feGaussianBlur stdDeviation="2.5" result="effect1_foregroundBlur_154_141"/>
</filter>
<filter id="filter16_f_154_141" x="630.761" y="1100.94" width="86.2114" height="84.979" filterUnits="userSpaceOnUse" color-interpolation-filters="sRGB">
<feFlood flood-opacity="0" result="BackgroundImageFix"/>
<feBlend mode="normal" in="SourceGraphic" in2="BackgroundImageFix" result="shape"/>
<feGaussianBlur stdDeviation="2.5" result="effect1_foregroundBlur_154_141"/>
</filter>
<filter id="filter17_i_154_141" x="1020.83" y="1220.38" width="226.461" height="222.816" filterUnits="userSpaceOnUse" color-interpolation-filters="sRGB">
<feFlood flood-opacity="0" result="BackgroundImageFix"/>
<feBlend mode="normal" in="SourceGraphic" in2="BackgroundImageFix" result="shape"/>
<feColorMatrix in="SourceAlpha" type="matrix" values="0 0 0 0 0 0 0 0 0 0 0 0 0 0 0 0 0 0 127 0" result="hardAlpha"/>
<feOffset dx="1" dy="1"/>
<feGaussianBlur stdDeviation="2.5"/>
<feComposite in2="hardAlpha" operator="arithmetic" k2="-1" k3="1"/>
<feColorMatrix type="matrix" values="0 0 0 0 0.992157 0 0 0 0 0.568627 0 0 0 0 1 0 0 0 1 0"/>
<feBlend mode="normal" in2="shape" result="effect1_innerShadow_154_141"/>
</filter>
<filter id="filter18_f_154_141" x="1265.33" y="1120.29" width="88.5891" height="86.4189" filterUnits="userSpaceOnUse" color-interpolation-filters="sRGB">
<feFlood flood-opacity="0" result="BackgroundImageFix"/>
<feBlend mode="normal" in="SourceGraphic" in2="BackgroundImageFix" result="shape"/>
<feGaussianBlur stdDeviation="3.5" result="effect1_foregroundBlur_154_141"/>
</filter>
<filter id="filter19_f_154_141" x="147.29" y="478.203" width="1113.2" height="915.101" filterUnits="userSpaceOnUse" color-interpolation-filters="sRGB">
<feFlood flood-opacity="0" result="BackgroundImageFix"/>
<feBlend mode="normal" in="SourceGraphic" in2="BackgroundImageFix" result="shape"/>
<feGaussianBlur stdDeviation="100" result="effect1_foregroundBlur_154_141"/>
</filter>
<filter id="filter20_f_154_141" x="537.536" y="806.701" width="447.501" height="440.582" filterUnits="userSpaceOnUse" color-interpolation-filters="sRGB">
<feFlood flood-opacity="0" result="BackgroundImageFix"/>
<feBlend mode="normal" in="SourceGraphic" in2="BackgroundImageFix" result="shape"/>
<feGaussianBlur stdDeviation="35" result="effect1_foregroundBlur_154_141"/>
</filter>
<filter id="filter21_f_154_141" x="635.207" y="863.298" width="291.641" height="287.778" filterUnits="userSpaceOnUse" color-interpolation-filters="sRGB">
<feFlood flood-opacity="0" result="BackgroundImageFix"/>
<feBlend mode="normal" in="SourceGraphic" in2="BackgroundImageFix" result="shape"/>
<feGaussianBlur stdDeviation="30" result="effect1_foregroundBlur_154_141"/>
</filter>
<filter id="filter22_f_154_141" x="289.814" y="688.568" width="97.2471" height="95.8042" filterUnits="userSpaceOnUse" color-interpolation-filters="sRGB">
<feFlood flood-opacity="0" result="BackgroundImageFix"/>
<feBlend mode="normal" in="SourceGraphic" in2="BackgroundImageFix" result="shape"/>
<feGaussianBlur stdDeviation="2" result="effect1_foregroundBlur_154_141"/>
</filter>
<filter id="filter23_f_154_141" x="67.2002" y="1001.3" width="87.2139" height="85.9653" filterUnits="userSpaceOnUse" color-interpolation-filters="sRGB">
<feFlood flood-opacity="0" result="BackgroundImageFix"/>
<feBlend mode="normal" in="SourceGraphic" in2="BackgroundImageFix" result="shape"/>
<feGaussianBlur stdDeviation="2.5" result="effect1_foregroundBlur_154_141"/>
</filter>
<filter id="filter24_f_154_141" x="630.761" y="1100.94" width="86.2114" height="84.979" filterUnits="userSpaceOnUse" color-interpolation-filters="sRGB">
<feFlood flood-opacity="0" result="BackgroundImageFix"/>
<feBlend mode="normal" in="SourceGraphic" in2="BackgroundImageFix" result="shape"/>
<feGaussianBlur stdDeviation="2.5" result="effect1_foregroundBlur_154_141"/>
</filter>
<filter id="filter25_i_154_141" x="1020.83" y="1220.38" width="226.461" height="222.816" filterUnits="userSpaceOnUse" color-interpolation-filters="sRGB">
<feFlood flood-opacity="0" result="BackgroundImageFix"/>
<feBlend mode="normal" in="SourceGraphic" in2="BackgroundImageFix" result="shape"/>
<feColorMatrix in="SourceAlpha" type="matrix" values="0 0 0 0 0 0 0 0 0 0 0 0 0 0 0 0 0 0 127 0" result="hardAlpha"/>
<feOffset dx="1" dy="1"/>
<feGaussianBlur stdDeviation="2.5"/>
<feComposite in2="hardAlpha" operator="arithmetic" k2="-1" k3="1"/>
<feColorMatrix type="matrix" values="0 0 0 0 0.992157 0 0 0 0 0.568627 0 0 0 0 1 0 0 0 1 0"/>
<feBlend mode="normal" in2="shape" result="effect1_innerShadow_154_141"/>
</filter>
<filter id="filter26_f_154_141" x="1265.33" y="1120.29" width="88.5891" height="86.4189" filterUnits="userSpaceOnUse" color-interpolation-filters="sRGB">
<feFlood flood-opacity="0" result="BackgroundImageFix"/>
<feBlend mode="normal" in="SourceGraphic" in2="BackgroundImageFix" result="shape"/>
<feGaussianBlur stdDeviation="3.5" result="effect1_foregroundBlur_154_141"/>
</filter>
<filter id="filter27_f_154_141" x="-606.244" y="-410.083" width="2806.68" height="2695.53" filterUnits="userSpaceOnUse" color-interpolation-filters="sRGB">
<feFlood flood-opacity="0" result="BackgroundImageFix"/>
<feBlend mode="normal" in="SourceGraphic" in2="BackgroundImageFix" result="shape"/>
<feGaussianBlur stdDeviation="418.78" result="effect1_foregroundBlur_154_141"/>
</filter>
<filter id="filter28_f_154_141" x="-309.312" y="3274.85" width="1116.89" height="953.112" filterUnits="userSpaceOnUse" color-interpolation-filters="sRGB">
<feFlood flood-opacity="0" result="BackgroundImageFix"/>
<feBlend mode="normal" in="SourceGraphic" in2="BackgroundImageFix" result="shape"/>
<feGaussianBlur stdDeviation="150" result="effect1_foregroundBlur_154_141"/>
</filter>
<filter id="filter29_f_154_141" x="-184.958" y="2500.23" width="984.619" height="779.827" filterUnits="userSpaceOnUse" color-interpolation-filters="sRGB">
<feFlood flood-opacity="0" result="BackgroundImageFix"/>
<feBlend mode="normal" in="SourceGraphic" in2="BackgroundImageFix" result="shape"/>
<feGaussianBlur stdDeviation="100" result="effect1_foregroundBlur_154_141"/>
</filter>
<filter id="filter30_f_154_141" x="-142.061" y="2848.48" width="836.208" height="829.155" filterUnits="userSpaceOnUse" color-interpolation-filters="sRGB">
<feFlood flood-opacity="0" result="BackgroundImageFix"/>
<feBlend mode="normal" in="SourceGraphic" in2="BackgroundImageFix" result="shape"/>
<feGaussianBlur stdDeviation="100" result="effect1_foregroundBlur_154_141"/>
</filter>
<filter id="filter31_f_154_141" x="77.3545" y="3066.78" width="397.379" height="392.571" filterUnits="userSpaceOnUse" color-interpolation-filters="sRGB">
<feFlood flood-opacity="0" result="BackgroundImageFix"/>
<feBlend mode="normal" in="SourceGraphic" in2="BackgroundImageFix" result="shape"/>
<feGaussianBlur stdDeviation="25" result="effect1_foregroundBlur_154_141"/>
</filter>
<linearGradient id="paint0_linear_154_141" x1="-5.6983e-08" y1="560.5" x2="1444" y2="553" gradientUnits="userSpaceOnUse">
<stop stop-color="#1E003C"/>
<stop offset="1" stop-color="#482D6A"/>
</linearGradient>
<radialGradient id="paint1_radial_154_141" cx="0" cy="0" r="1" gradientUnits="userSpaceOnUse" gradientTransform="translate(1184.29 254.7) rotate(109.392) scale(121.848 123.413)">
<stop offset="0.499324" stop-color="#111111" stop-opacity="0"/>
<stop offset="0.956678" stop-color="#5E2495"/>
</radialGradient>
<radialGradient id="paint2_radial_154_141" cx="0" cy="0" r="1" gradientUnits="userSpaceOnUse" gradientTransform="translate(1280.65 365.31) rotate(135.926) scale(42.71 42.6935)">
<stop offset="0.499324" stop-color="#111111" stop-opacity="0"/>
<stop offset="0.956678" stop-color="#A24F2C"/>
</radialGradient>
<radialGradient id="paint3_radial_154_141" cx="0" cy="0" r="1" gradientUnits="userSpaceOnUse" gradientTransform="translate(1194.73 656.541) rotate(-55.8984) scale(301.641 318.491)">
<stop offset="0.390625" stop-color="#111111"/>
<stop offset="0.848958" stop-color="#251268"/>
<stop offset="0.895026" stop-color="#5F1084"/>
</radialGradient>
<radialGradient id="paint4_radial_154_141" cx="0" cy="0" r="1" gradientUnits="userSpaceOnUse" gradientTransform="translate(1355.13 442.263) rotate(124.229) scale(438.145 462.777)">
<stop offset="0.54123" stop-color="#F2F2F2" stop-opacity="0"/>
<stop offset="0.86602" stop-opacity="0.62"/>
</radialGradient>
<radialGradient id="paint5_radial_154_141" cx="0" cy="0" r="1" gradientUnits="userSpaceOnUse" gradientTransform="translate(331.968 232.503) rotate(120.927) scale(115.262 115.263)">
<stop offset="0.577713" stop-color="#111111" stop-opacity="0"/>
<stop offset="0.866261" stop-color="#1F2737"/>
</radialGradient>
<radialGradient id="paint6_radial_154_141" cx="0" cy="0" r="1" gradientUnits="userSpaceOnUse" gradientTransform="translate(120.834 399.332) rotate(110.715) scale(130.355 130.356)">
<stop offset="0.473925" stop-color="#111111"/>
<stop offset="0.866261" stop-color="#1F2737"/>
</radialGradient>
<linearGradient id="paint7_linear_154_141" x1="680.751" y1="1014.17" x2="676.944" y2="1043.97" gradientUnits="userSpaceOnUse">
<stop offset="0.190577" stop-color="#EDBAFF"/>
<stop offset="0.427388" stop-color="#D8AFF9" stop-opacity="0"/>
</linearGradient>
<linearGradient id="paint8_linear_154_141" x1="1106.83" y1="1317.6" x2="1159.21" y2="1347.35" gradientUnits="userSpaceOnUse">
<stop offset="0.273858" stop-color="#C69C4A" stop-opacity="0.28"/>
<stop offset="1" stop-color="#FF6B00" stop-opacity="0"/>
</linearGradient>
<radialGradient id="paint9_radial_154_141" cx="0" cy="0" r="1" gradientUnits="userSpaceOnUse" gradientTransform="translate(276.013 713.414) rotate(26.3145) scale(119.979 118.808)">
<stop offset="0.473925" stop-color="#190F2E"/>
<stop offset="0.945943" stop-color="#7D4087"/>
</radialGradient>
<radialGradient id="paint10_radial_154_141" cx="0" cy="0" r="1" gradientUnits="userSpaceOnUse" gradientTransform="translate(286.566 1014.64) rotate(-1.37751) scale(165.729 176.238)">
<stop stop-color="#386480"/>
<stop offset="0.682292" stop-color="#5B4BB9"/>
<stop offset="0.932292" stop-color="#F9FDFF"/>
</radialGradient>
<radialGradient id="paint11_radial_154_141" cx="0" cy="0" r="1" gradientUnits="userSpaceOnUse" gradientTransform="translate(76.964 1110.43) rotate(-62.2974) scale(119.328 120.448)">
<stop offset="0.473925" stop-color="#130F1A"/>
<stop offset="0.823158" stop-color="#3B2A5E"/>
<stop offset="0.991368" stop-color="#8543B1"/>
</radialGradient>
<radialGradient id="paint12_radial_154_141" cx="0" cy="0" r="1" gradientUnits="userSpaceOnUse" gradientTransform="translate(663.831 1150.03) rotate(-25.4074) scale(52.4761 51.9427)">
<stop stop-color="#77099E"/>
<stop offset="0.697917" stop-color="#6B2DAA"/>
<stop offset="1" stop-color="#6CE8FF"/>
</radialGradient>
<radialGradient id="paint13_radial_154_141" cx="0" cy="0" r="1" gradientUnits="userSpaceOnUse" gradientTransform="translate(1345.39 972.847) rotate(172.904) scale(165.705 148.23)">
<stop stop-color="#FF994F"/>
<stop offset="0.71875" stop-color="#EB6E53"/>
<stop offset="0.895833" stop-color="#DEFFFB"/>
</radialGradient>
<linearGradient id="paint14_linear_154_141" x1="1257.97" y1="965.751" x2="1293.82" y2="1007.52" gradientUnits="userSpaceOnUse">
<stop stop-color="#6F3500" stop-opacity="0.34"/>
<stop offset="1" stop-color="#B55700" stop-opacity="0"/>
</linearGradient>
<radialGradient id="paint15_radial_154_141" cx="0" cy="0" r="1" gradientUnits="userSpaceOnUse" gradientTransform="translate(1064.42 979.933) rotate(151.211) scale(85.5527 91.3403)">
<stop stop-color="#200F31"/>
<stop offset="0.837244" stop-color="#82118C"/>
</radialGradient>
<linearGradient id="paint16_linear_154_141" x1="538.581" y1="1021.1" x2="538.73" y2="1013.32" gradientUnits="userSpaceOnUse">
<stop offset="0.190577" stop-color="#BAFBFF"/>
<stop offset="0.427388" stop-color="#AFD4F9" stop-opacity="0"/>
</linearGradient>
<radialGradient id="paint17_radial_154_141" cx="0" cy="0" r="1" gradientUnits="userSpaceOnUse" gradientTransform="translate(1207.26 1391.96) rotate(-141.894) scale(240.429 213.328)">
<stop stop-color="#45122B"/>
<stop offset="0.692708" stop-color="#1B1200"/>
<stop offset="0.880208" stop-color="#FFE7D1"/>
</radialGradient>
<linearGradient id="paint18_linear_154_141" x1="996.917" y1="1194.68" x2="796.394" y2="959.824" gradientUnits="userSpaceOnUse">
<stop offset="0.190577" stop-color="#BAFBFF"/>
<stop offset="0.427388" stop-color="#AFD4F9" stop-opacity="0"/>
</linearGradient>
<radialGradient id="paint19_radial_154_141" cx="0" cy="0" r="1" gradientUnits="userSpaceOnUse" gradientTransform="translate(1288.74 1163.18) rotate(2.01794) scale(57.0548 58.4595)">
<stop offset="0.412964"/>
<stop offset="0.601387"/>
<stop offset="1" stop-color="#3F048B"/>
</radialGradient>
<radialGradient id="paint20_radial_154_141" cx="0" cy="0" r="1" gradientUnits="userSpaceOnUse" gradientTransform="translate(120.726 1390.44) rotate(-34.1788) scale(239.936 238.525)">
<stop offset="0.473925" stop-color="#07090F"/>
<stop offset="0.702566" stop-color="#07193E"/>
<stop offset="0.926338" stop-color="#015980"/>
</radialGradient>
<radialGradient id="paint21_radial_154_141" cx="0" cy="0" r="1" gradientUnits="userSpaceOnUse" gradientTransform="translate(276.013 713.414) rotate(26.3145) scale(119.979 118.808)">
<stop offset="0.473925" stop-color="#190F2E"/>
<stop offset="0.945943" stop-color="#7D4087"/>
</radialGradient>
<radialGradient id="paint22_radial_154_141" cx="0" cy="0" r="1" gradientUnits="userSpaceOnUse" gradientTransform="translate(286.566 1014.64) rotate(-1.37751) scale(165.729 176.238)">
<stop stop-color="#692A95"/>
<stop offset="0.682292" stop-color="#4531BB"/>
<stop offset="0.932292" stop-color="#F9FDFF"/>
</radialGradient>
<radialGradient id="paint23_radial_154_141" cx="0" cy="0" r="1" gradientUnits="userSpaceOnUse" gradientTransform="translate(76.964 1110.43) rotate(-62.2974) scale(119.328 120.448)">
<stop offset="0.473925" stop-color="#170D3E"/>
<stop offset="0.823158" stop-color="#231451"/>
<stop offset="0.991368" stop-color="#8543B1"/>
</radialGradient>
<radialGradient id="paint24_radial_154_141" cx="0" cy="0" r="1" gradientUnits="userSpaceOnUse" gradientTransform="translate(663.831 1150.03) rotate(-25.4074) scale(52.4761 51.9427)">
<stop stop-color="#77099E"/>
<stop offset="0.697917" stop-color="#6B2DAA"/>
<stop offset="1" stop-color="#6CE8FF"/>
</radialGradient>
<radialGradient id="paint25_radial_154_141" cx="0" cy="0" r="1" gradientUnits="userSpaceOnUse" gradientTransform="translate(1345.39 972.847) rotate(172.904) scale(165.705 148.23)">
<stop stop-color="#3F187B"/>
<stop offset="0.71875" stop-color="#271788"/>
<stop offset="0.895833" stop-color="#D889C4"/>
</radialGradient>
<radialGradient id="paint26_radial_154_141" cx="0" cy="0" r="1" gradientUnits="userSpaceOnUse" gradientTransform="translate(1064.42 979.933) rotate(151.211) scale(85.5527 91.3403)">
<stop stop-color="#200F31"/>
<stop offset="0.837244" stop-color="#82118C"/>
</radialGradient>
<linearGradient id="paint27_linear_154_141" x1="538.581" y1="1021.1" x2="538.73" y2="1013.32" gradientUnits="userSpaceOnUse">
<stop offset="0.190577" stop-color="#BAFBFF"/>
<stop offset="0.427388" stop-color="#AFD4F9" stop-opacity="0"/>
</linearGradient>
<radialGradient id="paint28_radial_154_141" cx="0" cy="0" r="1" gradientUnits="userSpaceOnUse" gradientTransform="translate(1207.26 1391.96) rotate(-141.894) scale(240.429 213.328)">
<stop stop-color="#45122B"/>
<stop offset="0.692708" stop-color="#1B1200"/>
<stop offset="0.880208" stop-color="#FFE7D1"/>
</radialGradient>
<linearGradient id="paint29_linear_154_141" x1="996.917" y1="1194.68" x2="796.394" y2="959.824" gradientUnits="userSpaceOnUse">
<stop offset="0.190577" stop-color="#BAFBFF"/>
<stop offset="0.427388" stop-color="#AFD4F9" stop-opacity="0"/>
</linearGradient>
<radialGradient id="paint30_radial_154_141" cx="0" cy="0" r="1" gradientUnits="userSpaceOnUse" gradientTransform="translate(1288.74 1163.18) rotate(2.01794) scale(57.0548 58.4595)">
<stop offset="0.412964"/>
<stop offset="0.601387"/>
<stop offset="1" stop-color="#3F048B"/>
</radialGradient>
<radialGradient id="paint31_radial_154_141" cx="0" cy="0" r="1" gradientUnits="userSpaceOnUse" gradientTransform="translate(120.726 1390.44) rotate(-34.1788) scale(239.936 238.525)">
<stop offset="0.473925" stop-color="#0C0922"/>
<stop offset="0.755208" stop-color="#07193E"/>
<stop offset="0.926338" stop-color="#6C329F"/>
</radialGradient>
<linearGradient id="paint32_linear_154_141" x1="306.834" y1="2995.24" x2="306.834" y2="2999.63" gradientUnits="userSpaceOnUse">
<stop/>
<stop offset="1" stop-color="#AB480A" stop-opacity="0"/>
</linearGradient>
<clipPath id="clip0_154_141">
<rect width="1944" height="4000" fill="white"/>
</clipPath>
</defs>
</svg>
