<svg width="1615" height="1271" viewBox="0 0 1615 1271" fill="none" xmlns="http://www.w3.org/2000/svg">
<path d="M480.144 632.529C443.894 669.122 428.304 702.733 435.407 728.63C442.498 754.479 471.882 771.444 519.625 777.063C567.384 782.683 631.016 776.646 701.539 759.772C772.054 742.9 845.852 716.055 912.5 683.031C979.148 650.007 1035.26 612.482 1072.91 575.765C1110.56 539.04 1127.79 505.03 1122.32 478.533C1119.58 465.299 1111.24 454.261 1097.8 445.729C1084.34 437.194 1065.76 431.149 1042.51 427.921C996 421.472 933.246 426.657 863.104 442.78M488.371 572.361C391.756 628.332 325.906 685.258 302.597 732.877C290.947 756.68 290.323 777.344 300.181 794.104C310.036 810.858 330.398 823.765 360.879 832.012C421.876 848.514 519.253 845.233 635.528 822.683C751.781 800.136 879.204 759.825 994.847 709.007C1110.49 658.186 1206.73 600.21 1266.26 545.521C1296.02 518.179 1315.61 492.567 1324.62 469.769C1333.64 446.972 1332.08 427.009 1319.59 410.921C1307.11 394.834 1284.07 383.095 1251.91 376.06C1219.74 369.035 1178.49 366.72 1129.65 369.474C1031.97 374.989 910.457 400.391 786.988 441.137M71.861 935.38C155.185 1037.34 551.947 985.711 958.056 820.07C1364.16 654.428 1625.83 437.497 1542.51 335.542C1459.18 233.583 1062.42 285.205 656.314 450.849C250.206 616.491 -11.4629 833.423 71.861 935.38Z" stroke="white" stroke-opacity="0.15" stroke-width="0.922546"/>
<path d="M646.932 594.587C620.844 553.499 632.458 498.689 672.871 472.165C713.285 445.641 767.195 457.448 793.284 498.537C819.372 539.625 807.758 594.436 767.344 620.96C726.931 647.483 673.02 635.676 646.932 594.587Z" fill="url(#paint0_radial_865_223)"/>
<path d="M1526.65 782.85C1561.78 802.145 1574.86 846.734 1555.88 882.441C1536.91 918.147 1493.05 931.452 1457.94 912.156C1422.81 892.861 1409.73 848.273 1428.71 812.565C1447.69 776.859 1491.54 763.554 1526.65 782.85Z" fill="url(#paint1_radial_865_223)"/>
<defs>
<radialGradient id="paint0_radial_865_223" cx="0" cy="0" r="1" gradientUnits="userSpaceOnUse" gradientTransform="translate(781.755 457.996) rotate(125.878) scale(190.173 189.213)">
<stop/>
<stop offset="0.567337" stop-color="#160815"/>
<stop offset="0.840936" stop-color="#460D13"/>
<stop offset="1" stop-color="#9C4F2E"/>
</radialGradient>
<radialGradient id="paint1_radial_865_223" cx="0" cy="0" r="1" gradientUnits="userSpaceOnUse" gradientTransform="translate(1563.01 829.438) rotate(164.961) scale(153.207 155.423)">
<stop stop-color="#090909"/>
<stop offset="0.75" stop-color="#140D17"/>
<stop offset="0.880208" stop-color="#450F15"/>
<stop offset="1" stop-color="#624B10"/>
</radialGradient>
</defs>
</svg>
